<mxfile host="app.diagrams.net" modified="2021-06-27T12:35:04.548Z" agent="5.0 (Windows NT 10.0; Win64; x64) AppleWebKit/537.36 (KHTML, like Gecko) Chrome/91.0.4472.114 Safari/537.36" etag="1qjn-6Xwjg95GUBqZXQ9" version="14.8.1" type="github">
  <diagram id="R2lEEEUBdFMjLlhIrx00" name="Page-1">
    <mxGraphModel dx="1038" dy="585" grid="1" gridSize="10" guides="1" tooltips="1" connect="1" arrows="1" fold="1" page="1" pageScale="1" pageWidth="850" pageHeight="1100" math="0" shadow="0" extFonts="Permanent Marker^https://fonts.googleapis.com/css?family=Permanent+Marker">
      <root>
        <mxCell id="0" />
        <mxCell id="1" parent="0" />
        <mxCell id="k0YBy9jvbveZik2iZrXQ-133" value="" style="group" parent="1" vertex="1" connectable="0">
          <mxGeometry x="440" y="250" width="150" height="150" as="geometry" />
        </mxCell>
        <mxCell id="k0YBy9jvbveZik2iZrXQ-131" value="PK" style="shape=partialRectangle;overflow=hidden;connectable=0;fillColor=none;top=0;left=0;bottom=0;right=0;fontStyle=1;" parent="k0YBy9jvbveZik2iZrXQ-133" vertex="1">
          <mxGeometry y="60" width="30" height="30" as="geometry" />
        </mxCell>
        <mxCell id="k0YBy9jvbveZik2iZrXQ-132" value="role_id" style="shape=partialRectangle;overflow=hidden;connectable=0;fillColor=none;top=0;left=0;bottom=0;right=0;align=left;spacingLeft=6;fontStyle=5;" parent="k0YBy9jvbveZik2iZrXQ-133" vertex="1">
          <mxGeometry x="30" y="60" width="120" height="30" as="geometry" />
        </mxCell>
        <mxCell id="k0YBy9jvbveZik2iZrXQ-119" value="role_user" style="shape=table;startSize=30;container=1;collapsible=1;childLayout=tableLayout;fixedRows=1;rowLines=0;fontStyle=1;align=center;resizeLast=1;" parent="k0YBy9jvbveZik2iZrXQ-133" vertex="1">
          <mxGeometry width="150" height="150" as="geometry" />
        </mxCell>
        <mxCell id="k0YBy9jvbveZik2iZrXQ-120" value="" style="shape=partialRectangle;collapsible=0;dropTarget=0;pointerEvents=0;fillColor=none;points=[[0,0.5],[1,0.5]];portConstraint=eastwest;top=0;left=0;right=0;bottom=1;" parent="k0YBy9jvbveZik2iZrXQ-119" vertex="1">
          <mxGeometry y="30" width="150" height="30" as="geometry" />
        </mxCell>
        <mxCell id="k0YBy9jvbveZik2iZrXQ-121" value="PK" style="shape=partialRectangle;overflow=hidden;connectable=0;fillColor=none;top=0;left=0;bottom=0;right=0;fontStyle=1;" parent="k0YBy9jvbveZik2iZrXQ-120" vertex="1">
          <mxGeometry width="30" height="30" as="geometry" />
        </mxCell>
        <mxCell id="k0YBy9jvbveZik2iZrXQ-122" value="user_id" style="shape=partialRectangle;overflow=hidden;connectable=0;fillColor=none;top=0;left=0;bottom=0;right=0;align=left;spacingLeft=6;fontStyle=5;" parent="k0YBy9jvbveZik2iZrXQ-120" vertex="1">
          <mxGeometry x="30" width="120" height="30" as="geometry" />
        </mxCell>
        <mxCell id="k0YBy9jvbveZik2iZrXQ-126" value="" style="shape=partialRectangle;overflow=hidden;connectable=0;fillColor=none;top=0;left=0;bottom=0;right=0;" parent="k0YBy9jvbveZik2iZrXQ-133" vertex="1">
          <mxGeometry y="120" width="18" height="30" as="geometry" />
        </mxCell>
        <mxCell id="k0YBy9jvbveZik2iZrXQ-129" value="created_at" style="shape=partialRectangle;overflow=hidden;connectable=0;fillColor=none;top=0;left=0;bottom=0;right=0;align=left;spacingLeft=6;" parent="k0YBy9jvbveZik2iZrXQ-133" vertex="1">
          <mxGeometry x="30" y="90" width="120" height="30" as="geometry" />
        </mxCell>
        <mxCell id="k0YBy9jvbveZik2iZrXQ-130" value="updated_at" style="shape=partialRectangle;overflow=hidden;connectable=0;fillColor=none;top=0;left=0;bottom=0;right=0;align=left;spacingLeft=6;" parent="k0YBy9jvbveZik2iZrXQ-133" vertex="1">
          <mxGeometry x="30" y="120" width="120" height="30" as="geometry" />
        </mxCell>
        <mxCell id="k0YBy9jvbveZik2iZrXQ-165" value="" style="group" parent="1" vertex="1" connectable="0">
          <mxGeometry x="420" y="920" width="120" height="360" as="geometry" />
        </mxCell>
        <mxCell id="k0YBy9jvbveZik2iZrXQ-166" value="posts" style="shape=table;startSize=30;container=1;collapsible=1;childLayout=tableLayout;fixedRows=1;rowLines=0;fontStyle=1;align=center;resizeLast=1;" parent="k0YBy9jvbveZik2iZrXQ-165" vertex="1">
          <mxGeometry width="120" height="360" as="geometry" />
        </mxCell>
        <mxCell id="k0YBy9jvbveZik2iZrXQ-167" value="" style="shape=partialRectangle;collapsible=0;dropTarget=0;pointerEvents=0;fillColor=none;points=[[0,0.5],[1,0.5]];portConstraint=eastwest;top=0;left=0;right=0;bottom=1;" parent="k0YBy9jvbveZik2iZrXQ-166" vertex="1">
          <mxGeometry y="30" width="120" height="30" as="geometry" />
        </mxCell>
        <mxCell id="k0YBy9jvbveZik2iZrXQ-168" value="PK" style="shape=partialRectangle;overflow=hidden;connectable=0;fillColor=none;top=0;left=0;bottom=0;right=0;fontStyle=1;" parent="k0YBy9jvbveZik2iZrXQ-167" vertex="1">
          <mxGeometry width="30" height="30" as="geometry" />
        </mxCell>
        <mxCell id="k0YBy9jvbveZik2iZrXQ-169" value="post_id" style="shape=partialRectangle;overflow=hidden;connectable=0;fillColor=none;top=0;left=0;bottom=0;right=0;align=left;spacingLeft=6;fontStyle=5;" parent="k0YBy9jvbveZik2iZrXQ-167" vertex="1">
          <mxGeometry x="30" width="90" height="30" as="geometry" />
        </mxCell>
        <mxCell id="k0YBy9jvbveZik2iZrXQ-170" value="" style="shape=partialRectangle;collapsible=0;dropTarget=0;pointerEvents=0;fillColor=none;points=[[0,0.5],[1,0.5]];portConstraint=eastwest;top=0;left=0;right=0;bottom=0;" parent="k0YBy9jvbveZik2iZrXQ-166" vertex="1">
          <mxGeometry y="60" width="120" height="30" as="geometry" />
        </mxCell>
        <mxCell id="k0YBy9jvbveZik2iZrXQ-171" value="FK1" style="shape=partialRectangle;overflow=hidden;connectable=0;fillColor=none;top=0;left=0;bottom=0;right=0;" parent="k0YBy9jvbveZik2iZrXQ-170" vertex="1">
          <mxGeometry width="30" height="30" as="geometry" />
        </mxCell>
        <mxCell id="k0YBy9jvbveZik2iZrXQ-172" value="teacher_id" style="shape=partialRectangle;overflow=hidden;connectable=0;fillColor=none;top=0;left=0;bottom=0;right=0;align=left;spacingLeft=6;" parent="k0YBy9jvbveZik2iZrXQ-170" vertex="1">
          <mxGeometry x="30" width="90" height="30" as="geometry" />
        </mxCell>
        <mxCell id="k0YBy9jvbveZik2iZrXQ-173" value="" style="shape=partialRectangle;collapsible=0;dropTarget=0;pointerEvents=0;fillColor=none;points=[[0,0.5],[1,0.5]];portConstraint=eastwest;top=0;left=0;right=0;bottom=0;" parent="k0YBy9jvbveZik2iZrXQ-166" vertex="1">
          <mxGeometry y="90" width="120" height="30" as="geometry" />
        </mxCell>
        <mxCell id="k0YBy9jvbveZik2iZrXQ-174" value="" style="shape=partialRectangle;overflow=hidden;connectable=0;fillColor=none;top=0;left=0;bottom=0;right=0;" parent="k0YBy9jvbveZik2iZrXQ-173" vertex="1">
          <mxGeometry width="30" height="30" as="geometry" />
        </mxCell>
        <mxCell id="k0YBy9jvbveZik2iZrXQ-175" value="title" style="shape=partialRectangle;overflow=hidden;connectable=0;fillColor=none;top=0;left=0;bottom=0;right=0;align=left;spacingLeft=6;" parent="k0YBy9jvbveZik2iZrXQ-173" vertex="1">
          <mxGeometry x="30" width="90" height="30" as="geometry" />
        </mxCell>
        <mxCell id="k0YBy9jvbveZik2iZrXQ-176" value="" style="shape=partialRectangle;overflow=hidden;connectable=0;fillColor=none;top=0;left=0;bottom=0;right=0;" parent="k0YBy9jvbveZik2iZrXQ-165" vertex="1">
          <mxGeometry y="120" width="14.399999999999999" height="30" as="geometry" />
        </mxCell>
        <mxCell id="k0YBy9jvbveZik2iZrXQ-177" value="post_image" style="shape=partialRectangle;overflow=hidden;connectable=0;fillColor=none;top=0;left=0;bottom=0;right=0;align=left;spacingLeft=6;" parent="k0YBy9jvbveZik2iZrXQ-165" vertex="1">
          <mxGeometry x="30" y="150" width="90" height="30" as="geometry" />
        </mxCell>
        <mxCell id="k0YBy9jvbveZik2iZrXQ-178" value="" style="shape=partialRectangle;overflow=hidden;connectable=0;fillColor=none;top=0;left=0;bottom=0;right=0;" parent="k0YBy9jvbveZik2iZrXQ-165" vertex="1">
          <mxGeometry y="150" width="14.399999999999999" height="30" as="geometry" />
        </mxCell>
        <mxCell id="k0YBy9jvbveZik2iZrXQ-179" value="body" style="shape=partialRectangle;overflow=hidden;connectable=0;fillColor=none;top=0;left=0;bottom=0;right=0;align=left;spacingLeft=6;" parent="k0YBy9jvbveZik2iZrXQ-165" vertex="1">
          <mxGeometry x="30" y="180" width="90" height="30" as="geometry" />
        </mxCell>
        <mxCell id="k0YBy9jvbveZik2iZrXQ-180" value="" style="shape=partialRectangle;overflow=hidden;connectable=0;fillColor=none;top=0;left=0;bottom=0;right=0;" parent="k0YBy9jvbveZik2iZrXQ-165" vertex="1">
          <mxGeometry y="180" width="14.399999999999999" height="30" as="geometry" />
        </mxCell>
        <mxCell id="k0YBy9jvbveZik2iZrXQ-181" value="publish" style="shape=partialRectangle;overflow=hidden;connectable=0;fillColor=none;top=0;left=0;bottom=0;right=0;align=left;spacingLeft=6;" parent="k0YBy9jvbveZik2iZrXQ-165" vertex="1">
          <mxGeometry x="30" y="210" width="90" height="30" as="geometry" />
        </mxCell>
        <mxCell id="k0YBy9jvbveZik2iZrXQ-182" value="" style="shape=partialRectangle;overflow=hidden;connectable=0;fillColor=none;top=0;left=0;bottom=0;right=0;" parent="k0YBy9jvbveZik2iZrXQ-165" vertex="1">
          <mxGeometry y="270" width="14.399999999999999" height="30" as="geometry" />
        </mxCell>
        <mxCell id="k0YBy9jvbveZik2iZrXQ-183" value="created_at" style="shape=partialRectangle;overflow=hidden;connectable=0;fillColor=none;top=0;left=0;bottom=0;right=0;align=left;spacingLeft=6;" parent="k0YBy9jvbveZik2iZrXQ-165" vertex="1">
          <mxGeometry x="30" y="300" width="90" height="30" as="geometry" />
        </mxCell>
        <mxCell id="k0YBy9jvbveZik2iZrXQ-184" value="" style="shape=partialRectangle;overflow=hidden;connectable=0;fillColor=none;top=0;left=0;bottom=0;right=0;" parent="k0YBy9jvbveZik2iZrXQ-165" vertex="1">
          <mxGeometry y="300" width="14.399999999999999" height="30" as="geometry" />
        </mxCell>
        <mxCell id="k0YBy9jvbveZik2iZrXQ-185" value="updated_at" style="shape=partialRectangle;overflow=hidden;connectable=0;fillColor=none;top=0;left=0;bottom=0;right=0;align=left;spacingLeft=6;" parent="k0YBy9jvbveZik2iZrXQ-165" vertex="1">
          <mxGeometry x="30" y="330" width="90" height="30" as="geometry" />
        </mxCell>
        <mxCell id="k0YBy9jvbveZik2iZrXQ-186" value="" style="shape=partialRectangle;overflow=hidden;connectable=0;fillColor=none;top=0;left=0;bottom=0;right=0;" parent="k0YBy9jvbveZik2iZrXQ-165" vertex="1">
          <mxGeometry y="210" width="14.399999999999999" height="30" as="geometry" />
        </mxCell>
        <mxCell id="k0YBy9jvbveZik2iZrXQ-187" value="isActive" style="shape=partialRectangle;overflow=hidden;connectable=0;fillColor=none;top=0;left=0;bottom=0;right=0;align=left;spacingLeft=6;" parent="k0YBy9jvbveZik2iZrXQ-165" vertex="1">
          <mxGeometry x="30" y="240" width="90" height="30" as="geometry" />
        </mxCell>
        <mxCell id="k0YBy9jvbveZik2iZrXQ-188" value="" style="shape=partialRectangle;overflow=hidden;connectable=0;fillColor=none;top=0;left=0;bottom=0;right=0;" parent="k0YBy9jvbveZik2iZrXQ-165" vertex="1">
          <mxGeometry y="240" width="14.399999999999999" height="30" as="geometry" />
        </mxCell>
        <mxCell id="k0YBy9jvbveZik2iZrXQ-189" value="isDelete" style="shape=partialRectangle;overflow=hidden;connectable=0;fillColor=none;top=0;left=0;bottom=0;right=0;align=left;spacingLeft=6;" parent="k0YBy9jvbveZik2iZrXQ-165" vertex="1">
          <mxGeometry x="30" y="270" width="90" height="30" as="geometry" />
        </mxCell>
        <mxCell id="k0YBy9jvbveZik2iZrXQ-190" value="description" style="shape=partialRectangle;overflow=hidden;connectable=0;fillColor=none;top=0;left=0;bottom=0;right=0;align=left;spacingLeft=6;" parent="k0YBy9jvbveZik2iZrXQ-165" vertex="1">
          <mxGeometry x="30" y="120" width="90" height="30" as="geometry" />
        </mxCell>
        <mxCell id="k0YBy9jvbveZik2iZrXQ-258" value="" style="group" parent="1" vertex="1" connectable="0">
          <mxGeometry x="40" y="50" width="130" height="270" as="geometry" />
        </mxCell>
        <mxCell id="k0YBy9jvbveZik2iZrXQ-259" value="grades" style="shape=table;startSize=30;container=1;collapsible=1;childLayout=tableLayout;fixedRows=1;rowLines=0;fontStyle=1;align=center;resizeLast=1;" parent="k0YBy9jvbveZik2iZrXQ-258" vertex="1">
          <mxGeometry width="130" height="270" as="geometry" />
        </mxCell>
        <mxCell id="k0YBy9jvbveZik2iZrXQ-260" value="" style="shape=partialRectangle;collapsible=0;dropTarget=0;pointerEvents=0;fillColor=none;points=[[0,0.5],[1,0.5]];portConstraint=eastwest;top=0;left=0;right=0;bottom=1;" parent="k0YBy9jvbveZik2iZrXQ-259" vertex="1">
          <mxGeometry y="30" width="130" height="30" as="geometry" />
        </mxCell>
        <mxCell id="k0YBy9jvbveZik2iZrXQ-261" value="PK" style="shape=partialRectangle;overflow=hidden;connectable=0;fillColor=none;top=0;left=0;bottom=0;right=0;fontStyle=1;" parent="k0YBy9jvbveZik2iZrXQ-260" vertex="1">
          <mxGeometry width="30" height="30" as="geometry" />
        </mxCell>
        <mxCell id="k0YBy9jvbveZik2iZrXQ-262" value="grade_id" style="shape=partialRectangle;overflow=hidden;connectable=0;fillColor=none;top=0;left=0;bottom=0;right=0;align=left;spacingLeft=6;fontStyle=5;" parent="k0YBy9jvbveZik2iZrXQ-260" vertex="1">
          <mxGeometry x="30" width="100" height="30" as="geometry" />
        </mxCell>
        <mxCell id="k0YBy9jvbveZik2iZrXQ-263" value="" style="shape=partialRectangle;collapsible=0;dropTarget=0;pointerEvents=0;fillColor=none;points=[[0,0.5],[1,0.5]];portConstraint=eastwest;top=0;left=0;right=0;bottom=0;" parent="k0YBy9jvbveZik2iZrXQ-259" vertex="1">
          <mxGeometry y="60" width="130" height="30" as="geometry" />
        </mxCell>
        <mxCell id="k0YBy9jvbveZik2iZrXQ-264" value="" style="shape=partialRectangle;overflow=hidden;connectable=0;fillColor=none;top=0;left=0;bottom=0;right=0;" parent="k0YBy9jvbveZik2iZrXQ-263" vertex="1">
          <mxGeometry width="30" height="30" as="geometry" />
        </mxCell>
        <mxCell id="k0YBy9jvbveZik2iZrXQ-265" value="grade_title" style="shape=partialRectangle;overflow=hidden;connectable=0;fillColor=none;top=0;left=0;bottom=0;right=0;align=left;spacingLeft=6;" parent="k0YBy9jvbveZik2iZrXQ-263" vertex="1">
          <mxGeometry x="30" width="100" height="30" as="geometry" />
        </mxCell>
        <mxCell id="k0YBy9jvbveZik2iZrXQ-266" value="" style="shape=partialRectangle;collapsible=0;dropTarget=0;pointerEvents=0;fillColor=none;points=[[0,0.5],[1,0.5]];portConstraint=eastwest;top=0;left=0;right=0;bottom=0;" parent="k0YBy9jvbveZik2iZrXQ-259" vertex="1">
          <mxGeometry y="90" width="130" height="30" as="geometry" />
        </mxCell>
        <mxCell id="k0YBy9jvbveZik2iZrXQ-267" value="" style="shape=partialRectangle;overflow=hidden;connectable=0;fillColor=none;top=0;left=0;bottom=0;right=0;" parent="k0YBy9jvbveZik2iZrXQ-266" vertex="1">
          <mxGeometry width="30" height="30" as="geometry" />
        </mxCell>
        <mxCell id="k0YBy9jvbveZik2iZrXQ-268" value="grade_slug" style="shape=partialRectangle;overflow=hidden;connectable=0;fillColor=none;top=0;left=0;bottom=0;right=0;align=left;spacingLeft=6;" parent="k0YBy9jvbveZik2iZrXQ-266" vertex="1">
          <mxGeometry x="30" width="100" height="30" as="geometry" />
        </mxCell>
        <mxCell id="k0YBy9jvbveZik2iZrXQ-270" value="" style="shape=partialRectangle;overflow=hidden;connectable=0;fillColor=none;top=0;left=0;bottom=0;right=0;" parent="k0YBy9jvbveZik2iZrXQ-258" vertex="1">
          <mxGeometry y="150.00000000000003" width="15.600000000000001" height="30.000000000000004" as="geometry" />
        </mxCell>
        <mxCell id="k0YBy9jvbveZik2iZrXQ-271" value="isActive" style="shape=partialRectangle;overflow=hidden;connectable=0;fillColor=none;top=0;left=0;bottom=0;right=0;align=left;spacingLeft=6;" parent="k0YBy9jvbveZik2iZrXQ-258" vertex="1">
          <mxGeometry x="30" y="150" width="100" height="30" as="geometry" />
        </mxCell>
        <mxCell id="k0YBy9jvbveZik2iZrXQ-272" value="" style="shape=partialRectangle;overflow=hidden;connectable=0;fillColor=none;top=0;left=0;bottom=0;right=0;" parent="k0YBy9jvbveZik2iZrXQ-258" vertex="1">
          <mxGeometry y="180.00000000000006" width="15.600000000000001" height="30.000000000000004" as="geometry" />
        </mxCell>
        <mxCell id="k0YBy9jvbveZik2iZrXQ-273" value="isDelete" style="shape=partialRectangle;overflow=hidden;connectable=0;fillColor=none;top=0;left=0;bottom=0;right=0;align=left;spacingLeft=6;" parent="k0YBy9jvbveZik2iZrXQ-258" vertex="1">
          <mxGeometry x="30" y="180" width="100" height="30" as="geometry" />
        </mxCell>
        <mxCell id="k0YBy9jvbveZik2iZrXQ-274" value="" style="shape=partialRectangle;overflow=hidden;connectable=0;fillColor=none;top=0;left=0;bottom=0;right=0;" parent="k0YBy9jvbveZik2iZrXQ-258" vertex="1">
          <mxGeometry y="210" width="15.600000000000001" height="30.000000000000004" as="geometry" />
        </mxCell>
        <mxCell id="k0YBy9jvbveZik2iZrXQ-275" value="created_at" style="shape=partialRectangle;overflow=hidden;connectable=0;fillColor=none;top=0;left=0;bottom=0;right=0;align=left;spacingLeft=6;" parent="k0YBy9jvbveZik2iZrXQ-258" vertex="1">
          <mxGeometry x="30" y="210" width="100" height="30" as="geometry" />
        </mxCell>
        <mxCell id="k0YBy9jvbveZik2iZrXQ-276" value="" style="shape=partialRectangle;overflow=hidden;connectable=0;fillColor=none;top=0;left=0;bottom=0;right=0;" parent="k0YBy9jvbveZik2iZrXQ-258" vertex="1">
          <mxGeometry y="240.00000000000003" width="15.600000000000001" height="30.000000000000004" as="geometry" />
        </mxCell>
        <mxCell id="k0YBy9jvbveZik2iZrXQ-277" value="updated_at" style="shape=partialRectangle;overflow=hidden;connectable=0;fillColor=none;top=0;left=0;bottom=0;right=0;align=left;spacingLeft=6;" parent="k0YBy9jvbveZik2iZrXQ-258" vertex="1">
          <mxGeometry x="30" y="240" width="100" height="30" as="geometry" />
        </mxCell>
        <mxCell id="k0YBy9jvbveZik2iZrXQ-278" value="publish" style="shape=partialRectangle;overflow=hidden;connectable=0;fillColor=none;top=0;left=0;bottom=0;right=0;align=left;spacingLeft=6;" parent="k0YBy9jvbveZik2iZrXQ-258" vertex="1">
          <mxGeometry x="30" y="120" width="100" height="30" as="geometry" />
        </mxCell>
        <mxCell id="k0YBy9jvbveZik2iZrXQ-343" value="" style="group" parent="1" vertex="1" connectable="0">
          <mxGeometry x="135" y="360" width="150" height="150" as="geometry" />
        </mxCell>
        <mxCell id="k0YBy9jvbveZik2iZrXQ-344" value="PK" style="shape=partialRectangle;overflow=hidden;connectable=0;fillColor=none;top=0;left=0;bottom=0;right=0;fontStyle=1;" parent="k0YBy9jvbveZik2iZrXQ-343" vertex="1">
          <mxGeometry y="60" width="30" height="30" as="geometry" />
        </mxCell>
        <mxCell id="k0YBy9jvbveZik2iZrXQ-345" value="subject_id" style="shape=partialRectangle;overflow=hidden;connectable=0;fillColor=none;top=0;left=0;bottom=0;right=0;align=left;spacingLeft=6;fontStyle=5;" parent="k0YBy9jvbveZik2iZrXQ-343" vertex="1">
          <mxGeometry x="30" y="60" width="120" height="30" as="geometry" />
        </mxCell>
        <mxCell id="k0YBy9jvbveZik2iZrXQ-346" value="grade_subject" style="shape=table;startSize=30;container=1;collapsible=1;childLayout=tableLayout;fixedRows=1;rowLines=0;fontStyle=1;align=center;resizeLast=1;" parent="k0YBy9jvbveZik2iZrXQ-343" vertex="1">
          <mxGeometry width="150" height="150" as="geometry" />
        </mxCell>
        <mxCell id="k0YBy9jvbveZik2iZrXQ-347" value="" style="shape=partialRectangle;collapsible=0;dropTarget=0;pointerEvents=0;fillColor=none;points=[[0,0.5],[1,0.5]];portConstraint=eastwest;top=0;left=0;right=0;bottom=1;" parent="k0YBy9jvbveZik2iZrXQ-346" vertex="1">
          <mxGeometry y="30" width="150" height="30" as="geometry" />
        </mxCell>
        <mxCell id="k0YBy9jvbveZik2iZrXQ-348" value="PK" style="shape=partialRectangle;overflow=hidden;connectable=0;fillColor=none;top=0;left=0;bottom=0;right=0;fontStyle=1;" parent="k0YBy9jvbveZik2iZrXQ-347" vertex="1">
          <mxGeometry width="30" height="30" as="geometry" />
        </mxCell>
        <mxCell id="k0YBy9jvbveZik2iZrXQ-349" value="grade_id" style="shape=partialRectangle;overflow=hidden;connectable=0;fillColor=none;top=0;left=0;bottom=0;right=0;align=left;spacingLeft=6;fontStyle=5;" parent="k0YBy9jvbveZik2iZrXQ-347" vertex="1">
          <mxGeometry x="30" width="120" height="30" as="geometry" />
        </mxCell>
        <mxCell id="k0YBy9jvbveZik2iZrXQ-350" value="" style="shape=partialRectangle;overflow=hidden;connectable=0;fillColor=none;top=0;left=0;bottom=0;right=0;" parent="k0YBy9jvbveZik2iZrXQ-343" vertex="1">
          <mxGeometry y="120" width="18" height="30" as="geometry" />
        </mxCell>
        <mxCell id="k0YBy9jvbveZik2iZrXQ-351" value="created_at" style="shape=partialRectangle;overflow=hidden;connectable=0;fillColor=none;top=0;left=0;bottom=0;right=0;align=left;spacingLeft=6;" parent="k0YBy9jvbveZik2iZrXQ-343" vertex="1">
          <mxGeometry x="30" y="90" width="120" height="30" as="geometry" />
        </mxCell>
        <mxCell id="k0YBy9jvbveZik2iZrXQ-352" value="updated_at" style="shape=partialRectangle;overflow=hidden;connectable=0;fillColor=none;top=0;left=0;bottom=0;right=0;align=left;spacingLeft=6;" parent="k0YBy9jvbveZik2iZrXQ-343" vertex="1">
          <mxGeometry x="30" y="120" width="120" height="30" as="geometry" />
        </mxCell>
        <mxCell id="k0YBy9jvbveZik2iZrXQ-354" value="" style="group" parent="1" vertex="1" connectable="0">
          <mxGeometry x="460" y="440" width="120" height="240" as="geometry" />
        </mxCell>
        <mxCell id="C-vyLk0tnHw3VtMMgP7b-23" value="users" style="shape=table;startSize=30;container=1;collapsible=1;childLayout=tableLayout;fixedRows=1;rowLines=0;fontStyle=1;align=center;resizeLast=1;" parent="k0YBy9jvbveZik2iZrXQ-354" vertex="1">
          <mxGeometry width="120" height="240" as="geometry" />
        </mxCell>
        <mxCell id="C-vyLk0tnHw3VtMMgP7b-24" value="" style="shape=partialRectangle;collapsible=0;dropTarget=0;pointerEvents=0;fillColor=none;points=[[0,0.5],[1,0.5]];portConstraint=eastwest;top=0;left=0;right=0;bottom=1;" parent="C-vyLk0tnHw3VtMMgP7b-23" vertex="1">
          <mxGeometry y="30" width="120" height="30" as="geometry" />
        </mxCell>
        <mxCell id="C-vyLk0tnHw3VtMMgP7b-25" value="PK" style="shape=partialRectangle;overflow=hidden;connectable=0;fillColor=none;top=0;left=0;bottom=0;right=0;fontStyle=1;" parent="C-vyLk0tnHw3VtMMgP7b-24" vertex="1">
          <mxGeometry width="30" height="30" as="geometry" />
        </mxCell>
        <mxCell id="C-vyLk0tnHw3VtMMgP7b-26" value="user_id" style="shape=partialRectangle;overflow=hidden;connectable=0;fillColor=none;top=0;left=0;bottom=0;right=0;align=left;spacingLeft=6;fontStyle=5;" parent="C-vyLk0tnHw3VtMMgP7b-24" vertex="1">
          <mxGeometry x="30" width="90" height="30" as="geometry" />
        </mxCell>
        <mxCell id="C-vyLk0tnHw3VtMMgP7b-27" value="" style="shape=partialRectangle;collapsible=0;dropTarget=0;pointerEvents=0;fillColor=none;points=[[0,0.5],[1,0.5]];portConstraint=eastwest;top=0;left=0;right=0;bottom=0;" parent="C-vyLk0tnHw3VtMMgP7b-23" vertex="1">
          <mxGeometry y="60" width="120" height="30" as="geometry" />
        </mxCell>
        <mxCell id="C-vyLk0tnHw3VtMMgP7b-28" value="" style="shape=partialRectangle;overflow=hidden;connectable=0;fillColor=none;top=0;left=0;bottom=0;right=0;" parent="C-vyLk0tnHw3VtMMgP7b-27" vertex="1">
          <mxGeometry width="30" height="30" as="geometry" />
        </mxCell>
        <mxCell id="C-vyLk0tnHw3VtMMgP7b-29" value="username" style="shape=partialRectangle;overflow=hidden;connectable=0;fillColor=none;top=0;left=0;bottom=0;right=0;align=left;spacingLeft=6;" parent="C-vyLk0tnHw3VtMMgP7b-27" vertex="1">
          <mxGeometry x="30" width="90" height="30" as="geometry" />
        </mxCell>
        <mxCell id="k0YBy9jvbveZik2iZrXQ-1" value="" style="shape=partialRectangle;collapsible=0;dropTarget=0;pointerEvents=0;fillColor=none;points=[[0,0.5],[1,0.5]];portConstraint=eastwest;top=0;left=0;right=0;bottom=0;" parent="k0YBy9jvbveZik2iZrXQ-354" vertex="1">
          <mxGeometry x="20" y="90" width="100" height="30" as="geometry" />
        </mxCell>
        <mxCell id="k0YBy9jvbveZik2iZrXQ-2" value="" style="shape=partialRectangle;overflow=hidden;connectable=0;fillColor=none;top=0;left=0;bottom=0;right=0;" parent="k0YBy9jvbveZik2iZrXQ-1" vertex="1">
          <mxGeometry width="11.999999999999998" height="30" as="geometry" />
        </mxCell>
        <mxCell id="k0YBy9jvbveZik2iZrXQ-3" value="email" style="shape=partialRectangle;overflow=hidden;connectable=0;fillColor=none;top=0;left=0;bottom=0;right=0;align=left;spacingLeft=6;" parent="k0YBy9jvbveZik2iZrXQ-1" vertex="1">
          <mxGeometry x="11.999999999999998" width="87.99999999999999" height="30" as="geometry" />
        </mxCell>
        <mxCell id="k0YBy9jvbveZik2iZrXQ-5" value="" style="shape=partialRectangle;collapsible=0;dropTarget=0;pointerEvents=0;fillColor=none;points=[[0,0.5],[1,0.5]];portConstraint=eastwest;top=0;left=0;right=0;bottom=0;" parent="k0YBy9jvbveZik2iZrXQ-354" vertex="1">
          <mxGeometry x="20" y="120" width="100" height="30" as="geometry" />
        </mxCell>
        <mxCell id="k0YBy9jvbveZik2iZrXQ-6" value="" style="shape=partialRectangle;overflow=hidden;connectable=0;fillColor=none;top=0;left=0;bottom=0;right=0;" parent="k0YBy9jvbveZik2iZrXQ-5" vertex="1">
          <mxGeometry width="12" height="30" as="geometry" />
        </mxCell>
        <mxCell id="k0YBy9jvbveZik2iZrXQ-7" value="password" style="shape=partialRectangle;overflow=hidden;connectable=0;fillColor=none;top=0;left=0;bottom=0;right=0;align=left;spacingLeft=6;" parent="k0YBy9jvbveZik2iZrXQ-5" vertex="1">
          <mxGeometry x="12" width="88" height="30" as="geometry" />
        </mxCell>
        <mxCell id="k0YBy9jvbveZik2iZrXQ-8" value="" style="shape=partialRectangle;collapsible=0;dropTarget=0;pointerEvents=0;fillColor=none;points=[[0,0.5],[1,0.5]];portConstraint=eastwest;top=0;left=0;right=0;bottom=0;" parent="k0YBy9jvbveZik2iZrXQ-354" vertex="1">
          <mxGeometry x="20" y="150" width="100" height="30" as="geometry" />
        </mxCell>
        <mxCell id="k0YBy9jvbveZik2iZrXQ-9" value="" style="shape=partialRectangle;overflow=hidden;connectable=0;fillColor=none;top=0;left=0;bottom=0;right=0;" parent="k0YBy9jvbveZik2iZrXQ-8" vertex="1">
          <mxGeometry width="12" height="30" as="geometry" />
        </mxCell>
        <mxCell id="k0YBy9jvbveZik2iZrXQ-10" value="isActive" style="shape=partialRectangle;overflow=hidden;connectable=0;fillColor=none;top=0;left=0;bottom=0;right=0;align=left;spacingLeft=6;" parent="k0YBy9jvbveZik2iZrXQ-8" vertex="1">
          <mxGeometry x="12" width="88" height="30" as="geometry" />
        </mxCell>
        <mxCell id="k0YBy9jvbveZik2iZrXQ-11" value="" style="shape=partialRectangle;collapsible=0;dropTarget=0;pointerEvents=0;fillColor=none;points=[[0,0.5],[1,0.5]];portConstraint=eastwest;top=0;left=0;right=0;bottom=0;" parent="k0YBy9jvbveZik2iZrXQ-354" vertex="1">
          <mxGeometry x="20" y="180" width="100" height="30" as="geometry" />
        </mxCell>
        <mxCell id="k0YBy9jvbveZik2iZrXQ-12" value="" style="shape=partialRectangle;overflow=hidden;connectable=0;fillColor=none;top=0;left=0;bottom=0;right=0;" parent="k0YBy9jvbveZik2iZrXQ-11" vertex="1">
          <mxGeometry width="12" height="30" as="geometry" />
        </mxCell>
        <mxCell id="k0YBy9jvbveZik2iZrXQ-13" value="created_at" style="shape=partialRectangle;overflow=hidden;connectable=0;fillColor=none;top=0;left=0;bottom=0;right=0;align=left;spacingLeft=6;" parent="k0YBy9jvbveZik2iZrXQ-11" vertex="1">
          <mxGeometry x="12" width="88" height="30" as="geometry" />
        </mxCell>
        <mxCell id="k0YBy9jvbveZik2iZrXQ-14" value="" style="shape=partialRectangle;collapsible=0;dropTarget=0;pointerEvents=0;fillColor=none;points=[[0,0.5],[1,0.5]];portConstraint=eastwest;top=0;left=0;right=0;bottom=0;" parent="k0YBy9jvbveZik2iZrXQ-354" vertex="1">
          <mxGeometry x="20" y="210" width="100" height="30" as="geometry" />
        </mxCell>
        <mxCell id="k0YBy9jvbveZik2iZrXQ-15" value="" style="shape=partialRectangle;overflow=hidden;connectable=0;fillColor=none;top=0;left=0;bottom=0;right=0;" parent="k0YBy9jvbveZik2iZrXQ-14" vertex="1">
          <mxGeometry width="12" height="30" as="geometry" />
        </mxCell>
        <mxCell id="k0YBy9jvbveZik2iZrXQ-16" value="updated_at" style="shape=partialRectangle;overflow=hidden;connectable=0;fillColor=none;top=0;left=0;bottom=0;right=0;align=left;spacingLeft=6;" parent="k0YBy9jvbveZik2iZrXQ-14" vertex="1">
          <mxGeometry x="12" width="88" height="30" as="geometry" />
        </mxCell>
        <mxCell id="k0YBy9jvbveZik2iZrXQ-134" value="" style="group" parent="1" vertex="1" connectable="0">
          <mxGeometry x="670" y="40" width="140" height="270" as="geometry" />
        </mxCell>
        <mxCell id="k0YBy9jvbveZik2iZrXQ-135" value="notices" style="shape=table;startSize=30;container=1;collapsible=1;childLayout=tableLayout;fixedRows=1;rowLines=0;fontStyle=1;align=center;resizeLast=1;" parent="k0YBy9jvbveZik2iZrXQ-134" vertex="1">
          <mxGeometry width="140" height="270" as="geometry" />
        </mxCell>
        <mxCell id="k0YBy9jvbveZik2iZrXQ-136" value="" style="shape=partialRectangle;collapsible=0;dropTarget=0;pointerEvents=0;fillColor=none;points=[[0,0.5],[1,0.5]];portConstraint=eastwest;top=0;left=0;right=0;bottom=1;" parent="k0YBy9jvbveZik2iZrXQ-135" vertex="1">
          <mxGeometry y="30" width="140" height="30" as="geometry" />
        </mxCell>
        <mxCell id="k0YBy9jvbveZik2iZrXQ-137" value="PK" style="shape=partialRectangle;overflow=hidden;connectable=0;fillColor=none;top=0;left=0;bottom=0;right=0;fontStyle=1;" parent="k0YBy9jvbveZik2iZrXQ-136" vertex="1">
          <mxGeometry width="30" height="30" as="geometry" />
        </mxCell>
        <mxCell id="k0YBy9jvbveZik2iZrXQ-138" value="notices_id" style="shape=partialRectangle;overflow=hidden;connectable=0;fillColor=none;top=0;left=0;bottom=0;right=0;align=left;spacingLeft=6;fontStyle=5;" parent="k0YBy9jvbveZik2iZrXQ-136" vertex="1">
          <mxGeometry x="30" width="110" height="30" as="geometry" />
        </mxCell>
        <mxCell id="k0YBy9jvbveZik2iZrXQ-139" value="" style="shape=partialRectangle;collapsible=0;dropTarget=0;pointerEvents=0;fillColor=none;points=[[0,0.5],[1,0.5]];portConstraint=eastwest;top=0;left=0;right=0;bottom=0;" parent="k0YBy9jvbveZik2iZrXQ-135" vertex="1">
          <mxGeometry y="60" width="140" height="30" as="geometry" />
        </mxCell>
        <mxCell id="k0YBy9jvbveZik2iZrXQ-140" value="FK1" style="shape=partialRectangle;overflow=hidden;connectable=0;fillColor=none;top=0;left=0;bottom=0;right=0;" parent="k0YBy9jvbveZik2iZrXQ-139" vertex="1">
          <mxGeometry width="30" height="30" as="geometry" />
        </mxCell>
        <mxCell id="k0YBy9jvbveZik2iZrXQ-141" value="user_id" style="shape=partialRectangle;overflow=hidden;connectable=0;fillColor=none;top=0;left=0;bottom=0;right=0;align=left;spacingLeft=6;" parent="k0YBy9jvbveZik2iZrXQ-139" vertex="1">
          <mxGeometry x="30" width="110" height="30" as="geometry" />
        </mxCell>
        <mxCell id="k0YBy9jvbveZik2iZrXQ-142" value="" style="shape=partialRectangle;collapsible=0;dropTarget=0;pointerEvents=0;fillColor=none;points=[[0,0.5],[1,0.5]];portConstraint=eastwest;top=0;left=0;right=0;bottom=0;" parent="k0YBy9jvbveZik2iZrXQ-135" vertex="1">
          <mxGeometry y="90" width="140" height="30" as="geometry" />
        </mxCell>
        <mxCell id="k0YBy9jvbveZik2iZrXQ-143" value="" style="shape=partialRectangle;overflow=hidden;connectable=0;fillColor=none;top=0;left=0;bottom=0;right=0;" parent="k0YBy9jvbveZik2iZrXQ-142" vertex="1">
          <mxGeometry width="30" height="30" as="geometry" />
        </mxCell>
        <mxCell id="k0YBy9jvbveZik2iZrXQ-144" value="title" style="shape=partialRectangle;overflow=hidden;connectable=0;fillColor=none;top=0;left=0;bottom=0;right=0;align=left;spacingLeft=6;" parent="k0YBy9jvbveZik2iZrXQ-142" vertex="1">
          <mxGeometry x="30" width="110" height="30" as="geometry" />
        </mxCell>
        <mxCell id="k0YBy9jvbveZik2iZrXQ-145" value="" style="shape=partialRectangle;overflow=hidden;connectable=0;fillColor=none;top=0;left=0;bottom=0;right=0;" parent="k0YBy9jvbveZik2iZrXQ-134" vertex="1">
          <mxGeometry y="120" width="16.8" height="30" as="geometry" />
        </mxCell>
        <mxCell id="k0YBy9jvbveZik2iZrXQ-146" value="post_image" style="shape=partialRectangle;overflow=hidden;connectable=0;fillColor=none;top=0;left=0;bottom=0;right=0;align=left;spacingLeft=6;" parent="k0YBy9jvbveZik2iZrXQ-134" vertex="1">
          <mxGeometry x="30" y="120" width="110" height="30" as="geometry" />
        </mxCell>
        <mxCell id="k0YBy9jvbveZik2iZrXQ-147" value="" style="shape=partialRectangle;overflow=hidden;connectable=0;fillColor=none;top=0;left=0;bottom=0;right=0;" parent="k0YBy9jvbveZik2iZrXQ-134" vertex="1">
          <mxGeometry y="150" width="16.8" height="30" as="geometry" />
        </mxCell>
        <mxCell id="k0YBy9jvbveZik2iZrXQ-148" value="body" style="shape=partialRectangle;overflow=hidden;connectable=0;fillColor=none;top=0;left=0;bottom=0;right=0;align=left;spacingLeft=6;" parent="k0YBy9jvbveZik2iZrXQ-134" vertex="1">
          <mxGeometry x="30" y="150" width="110" height="30" as="geometry" />
        </mxCell>
        <mxCell id="k0YBy9jvbveZik2iZrXQ-149" value="" style="shape=partialRectangle;overflow=hidden;connectable=0;fillColor=none;top=0;left=0;bottom=0;right=0;" parent="k0YBy9jvbveZik2iZrXQ-134" vertex="1">
          <mxGeometry y="180" width="16.8" height="30" as="geometry" />
        </mxCell>
        <mxCell id="k0YBy9jvbveZik2iZrXQ-150" value="publish" style="shape=partialRectangle;overflow=hidden;connectable=0;fillColor=none;top=0;left=0;bottom=0;right=0;align=left;spacingLeft=6;" parent="k0YBy9jvbveZik2iZrXQ-134" vertex="1">
          <mxGeometry x="30" y="180" width="110" height="30" as="geometry" />
        </mxCell>
        <mxCell id="k0YBy9jvbveZik2iZrXQ-151" value="" style="shape=partialRectangle;overflow=hidden;connectable=0;fillColor=none;top=0;left=0;bottom=0;right=0;" parent="k0YBy9jvbveZik2iZrXQ-134" vertex="1">
          <mxGeometry y="210" width="16.8" height="30" as="geometry" />
        </mxCell>
        <mxCell id="k0YBy9jvbveZik2iZrXQ-152" value="created_at" style="shape=partialRectangle;overflow=hidden;connectable=0;fillColor=none;top=0;left=0;bottom=0;right=0;align=left;spacingLeft=6;" parent="k0YBy9jvbveZik2iZrXQ-134" vertex="1">
          <mxGeometry x="30" y="210" width="110" height="30" as="geometry" />
        </mxCell>
        <mxCell id="k0YBy9jvbveZik2iZrXQ-153" value="" style="shape=partialRectangle;overflow=hidden;connectable=0;fillColor=none;top=0;left=0;bottom=0;right=0;" parent="k0YBy9jvbveZik2iZrXQ-134" vertex="1">
          <mxGeometry y="240" width="16.8" height="30" as="geometry" />
        </mxCell>
        <mxCell id="k0YBy9jvbveZik2iZrXQ-154" value="updated_at" style="shape=partialRectangle;overflow=hidden;connectable=0;fillColor=none;top=0;left=0;bottom=0;right=0;align=left;spacingLeft=6;" parent="k0YBy9jvbveZik2iZrXQ-134" vertex="1">
          <mxGeometry x="30" y="240" width="110" height="30" as="geometry" />
        </mxCell>
        <mxCell id="k0YBy9jvbveZik2iZrXQ-71" value="" style="group" parent="1" vertex="1" connectable="0">
          <mxGeometry x="650" y="730" width="150" height="400" as="geometry" />
        </mxCell>
        <mxCell id="k0YBy9jvbveZik2iZrXQ-72" value="profiles" style="shape=table;startSize=30;container=1;collapsible=1;childLayout=tableLayout;fixedRows=1;rowLines=0;fontStyle=1;align=center;resizeLast=1;" parent="k0YBy9jvbveZik2iZrXQ-71" vertex="1">
          <mxGeometry width="150" height="400" as="geometry" />
        </mxCell>
        <mxCell id="k0YBy9jvbveZik2iZrXQ-73" value="" style="shape=partialRectangle;collapsible=0;dropTarget=0;pointerEvents=0;fillColor=none;points=[[0,0.5],[1,0.5]];portConstraint=eastwest;top=0;left=0;right=0;bottom=1;" parent="k0YBy9jvbveZik2iZrXQ-72" vertex="1">
          <mxGeometry y="30" width="150" height="30" as="geometry" />
        </mxCell>
        <mxCell id="k0YBy9jvbveZik2iZrXQ-74" value="PK" style="shape=partialRectangle;overflow=hidden;connectable=0;fillColor=none;top=0;left=0;bottom=0;right=0;fontStyle=1;" parent="k0YBy9jvbveZik2iZrXQ-73" vertex="1">
          <mxGeometry width="30" height="30" as="geometry" />
        </mxCell>
        <mxCell id="k0YBy9jvbveZik2iZrXQ-75" value="profile_id" style="shape=partialRectangle;overflow=hidden;connectable=0;fillColor=none;top=0;left=0;bottom=0;right=0;align=left;spacingLeft=6;fontStyle=5;" parent="k0YBy9jvbveZik2iZrXQ-73" vertex="1">
          <mxGeometry x="30" width="120" height="30" as="geometry" />
        </mxCell>
        <mxCell id="k0YBy9jvbveZik2iZrXQ-76" value="" style="shape=partialRectangle;collapsible=0;dropTarget=0;pointerEvents=0;fillColor=none;points=[[0,0.5],[1,0.5]];portConstraint=eastwest;top=0;left=0;right=0;bottom=0;" parent="k0YBy9jvbveZik2iZrXQ-72" vertex="1">
          <mxGeometry y="60" width="150" height="30" as="geometry" />
        </mxCell>
        <mxCell id="k0YBy9jvbveZik2iZrXQ-77" value="FK1" style="shape=partialRectangle;overflow=hidden;connectable=0;fillColor=none;top=0;left=0;bottom=0;right=0;" parent="k0YBy9jvbveZik2iZrXQ-76" vertex="1">
          <mxGeometry width="30" height="30" as="geometry" />
        </mxCell>
        <mxCell id="k0YBy9jvbveZik2iZrXQ-78" value="user_id" style="shape=partialRectangle;overflow=hidden;connectable=0;fillColor=none;top=0;left=0;bottom=0;right=0;align=left;spacingLeft=6;" parent="k0YBy9jvbveZik2iZrXQ-76" vertex="1">
          <mxGeometry x="30" width="120" height="30" as="geometry" />
        </mxCell>
        <mxCell id="k0YBy9jvbveZik2iZrXQ-79" value="" style="shape=partialRectangle;collapsible=0;dropTarget=0;pointerEvents=0;fillColor=none;points=[[0,0.5],[1,0.5]];portConstraint=eastwest;top=0;left=0;right=0;bottom=0;" parent="k0YBy9jvbveZik2iZrXQ-72" vertex="1">
          <mxGeometry y="90" width="150" height="30" as="geometry" />
        </mxCell>
        <mxCell id="k0YBy9jvbveZik2iZrXQ-80" value="" style="shape=partialRectangle;overflow=hidden;connectable=0;fillColor=none;top=0;left=0;bottom=0;right=0;" parent="k0YBy9jvbveZik2iZrXQ-79" vertex="1">
          <mxGeometry width="30" height="30" as="geometry" />
        </mxCell>
        <mxCell id="k0YBy9jvbveZik2iZrXQ-81" value="profile_image" style="shape=partialRectangle;overflow=hidden;connectable=0;fillColor=none;top=0;left=0;bottom=0;right=0;align=left;spacingLeft=6;" parent="k0YBy9jvbveZik2iZrXQ-79" vertex="1">
          <mxGeometry x="30" width="120" height="30" as="geometry" />
        </mxCell>
        <mxCell id="k0YBy9jvbveZik2iZrXQ-82" value="" style="shape=partialRectangle;overflow=hidden;connectable=0;fillColor=none;top=0;left=0;bottom=0;right=0;" parent="k0YBy9jvbveZik2iZrXQ-71" vertex="1">
          <mxGeometry y="141.1764705882353" width="18" height="35.294117647058826" as="geometry" />
        </mxCell>
        <mxCell id="k0YBy9jvbveZik2iZrXQ-83" value="full_name" style="shape=partialRectangle;overflow=hidden;connectable=0;fillColor=none;top=0;left=0;bottom=0;right=0;align=left;spacingLeft=6;" parent="k0YBy9jvbveZik2iZrXQ-71" vertex="1">
          <mxGeometry x="30" y="120" width="120" height="35.29" as="geometry" />
        </mxCell>
        <mxCell id="k0YBy9jvbveZik2iZrXQ-84" value="" style="shape=partialRectangle;overflow=hidden;connectable=0;fillColor=none;top=0;left=0;bottom=0;right=0;" parent="k0YBy9jvbveZik2iZrXQ-71" vertex="1">
          <mxGeometry y="176.4705882352941" width="18" height="35.294117647058826" as="geometry" />
        </mxCell>
        <mxCell id="k0YBy9jvbveZik2iZrXQ-85" value="address" style="shape=partialRectangle;overflow=hidden;connectable=0;fillColor=none;top=0;left=0;bottom=0;right=0;align=left;spacingLeft=6;" parent="k0YBy9jvbveZik2iZrXQ-71" vertex="1">
          <mxGeometry x="30" y="155.29" width="120" height="35.29" as="geometry" />
        </mxCell>
        <mxCell id="k0YBy9jvbveZik2iZrXQ-86" value="" style="shape=partialRectangle;overflow=hidden;connectable=0;fillColor=none;top=0;left=0;bottom=0;right=0;" parent="k0YBy9jvbveZik2iZrXQ-71" vertex="1">
          <mxGeometry y="211.76470588235293" width="18" height="35.294117647058826" as="geometry" />
        </mxCell>
        <mxCell id="k0YBy9jvbveZik2iZrXQ-87" value="guradian_name1" style="shape=partialRectangle;overflow=hidden;connectable=0;fillColor=none;top=0;left=0;bottom=0;right=0;align=left;spacingLeft=6;" parent="k0YBy9jvbveZik2iZrXQ-71" vertex="1">
          <mxGeometry x="30" y="190.58" width="120" height="35.29" as="geometry" />
        </mxCell>
        <mxCell id="k0YBy9jvbveZik2iZrXQ-88" value="" style="shape=partialRectangle;overflow=hidden;connectable=0;fillColor=none;top=0;left=0;bottom=0;right=0;" parent="k0YBy9jvbveZik2iZrXQ-71" vertex="1">
          <mxGeometry y="247.05882352941174" width="18" height="35.294117647058826" as="geometry" />
        </mxCell>
        <mxCell id="k0YBy9jvbveZik2iZrXQ-89" value="created_at" style="shape=partialRectangle;overflow=hidden;connectable=0;fillColor=none;top=0;left=0;bottom=0;right=0;align=left;spacingLeft=6;" parent="k0YBy9jvbveZik2iZrXQ-71" vertex="1">
          <mxGeometry x="30" y="329.41" width="120" height="35.29" as="geometry" />
        </mxCell>
        <mxCell id="k0YBy9jvbveZik2iZrXQ-90" value="" style="shape=partialRectangle;overflow=hidden;connectable=0;fillColor=none;top=0;left=0;bottom=0;right=0;" parent="k0YBy9jvbveZik2iZrXQ-71" vertex="1">
          <mxGeometry y="282.3529411764706" width="18" height="35.294117647058826" as="geometry" />
        </mxCell>
        <mxCell id="k0YBy9jvbveZik2iZrXQ-91" value="updated_at" style="shape=partialRectangle;overflow=hidden;connectable=0;fillColor=none;top=0;left=0;bottom=0;right=0;align=left;spacingLeft=6;" parent="k0YBy9jvbveZik2iZrXQ-71" vertex="1">
          <mxGeometry x="30" y="364.71" width="120" height="35.29" as="geometry" />
        </mxCell>
        <mxCell id="k0YBy9jvbveZik2iZrXQ-92" value="gphone_no1" style="shape=partialRectangle;overflow=hidden;connectable=0;fillColor=none;top=0;left=0;bottom=0;right=0;align=left;spacingLeft=6;" parent="k0YBy9jvbveZik2iZrXQ-71" vertex="1">
          <mxGeometry x="30" y="225.88" width="120" height="35.29" as="geometry" />
        </mxCell>
        <mxCell id="k0YBy9jvbveZik2iZrXQ-93" value="guardian_name2" style="shape=partialRectangle;overflow=hidden;connectable=0;fillColor=none;top=0;left=0;bottom=0;right=0;align=left;spacingLeft=6;" parent="k0YBy9jvbveZik2iZrXQ-71" vertex="1">
          <mxGeometry x="30" y="261.17" width="120" height="35.29" as="geometry" />
        </mxCell>
        <mxCell id="k0YBy9jvbveZik2iZrXQ-94" value="gphone_no2" style="shape=partialRectangle;overflow=hidden;connectable=0;fillColor=none;top=0;left=0;bottom=0;right=0;align=left;spacingLeft=6;" parent="k0YBy9jvbveZik2iZrXQ-71" vertex="1">
          <mxGeometry x="30" y="296.46" width="120" height="35.29" as="geometry" />
        </mxCell>
        <mxCell id="k0YBy9jvbveZik2iZrXQ-355" value="" style="group" parent="1" vertex="1" connectable="0">
          <mxGeometry x="700" y="440" width="130" height="270" as="geometry" />
        </mxCell>
        <mxCell id="C-vyLk0tnHw3VtMMgP7b-2" value="forums" style="shape=table;startSize=30;container=1;collapsible=1;childLayout=tableLayout;fixedRows=1;rowLines=0;fontStyle=1;align=center;resizeLast=1;" parent="k0YBy9jvbveZik2iZrXQ-355" vertex="1">
          <mxGeometry width="130" height="270" as="geometry" />
        </mxCell>
        <mxCell id="C-vyLk0tnHw3VtMMgP7b-3" value="" style="shape=partialRectangle;collapsible=0;dropTarget=0;pointerEvents=0;fillColor=none;points=[[0,0.5],[1,0.5]];portConstraint=eastwest;top=0;left=0;right=0;bottom=1;" parent="C-vyLk0tnHw3VtMMgP7b-2" vertex="1">
          <mxGeometry y="30" width="130" height="30" as="geometry" />
        </mxCell>
        <mxCell id="C-vyLk0tnHw3VtMMgP7b-4" value="PK" style="shape=partialRectangle;overflow=hidden;connectable=0;fillColor=none;top=0;left=0;bottom=0;right=0;fontStyle=1;" parent="C-vyLk0tnHw3VtMMgP7b-3" vertex="1">
          <mxGeometry width="30" height="30" as="geometry" />
        </mxCell>
        <mxCell id="C-vyLk0tnHw3VtMMgP7b-5" value="forum_id" style="shape=partialRectangle;overflow=hidden;connectable=0;fillColor=none;top=0;left=0;bottom=0;right=0;align=left;spacingLeft=6;fontStyle=5;" parent="C-vyLk0tnHw3VtMMgP7b-3" vertex="1">
          <mxGeometry x="30" width="100" height="30" as="geometry" />
        </mxCell>
        <mxCell id="C-vyLk0tnHw3VtMMgP7b-6" value="" style="shape=partialRectangle;collapsible=0;dropTarget=0;pointerEvents=0;fillColor=none;points=[[0,0.5],[1,0.5]];portConstraint=eastwest;top=0;left=0;right=0;bottom=0;" parent="C-vyLk0tnHw3VtMMgP7b-2" vertex="1">
          <mxGeometry y="60" width="130" height="30" as="geometry" />
        </mxCell>
        <mxCell id="C-vyLk0tnHw3VtMMgP7b-7" value="FK1" style="shape=partialRectangle;overflow=hidden;connectable=0;fillColor=none;top=0;left=0;bottom=0;right=0;" parent="C-vyLk0tnHw3VtMMgP7b-6" vertex="1">
          <mxGeometry width="30" height="30" as="geometry" />
        </mxCell>
        <mxCell id="C-vyLk0tnHw3VtMMgP7b-8" value="user_id" style="shape=partialRectangle;overflow=hidden;connectable=0;fillColor=none;top=0;left=0;bottom=0;right=0;align=left;spacingLeft=6;" parent="C-vyLk0tnHw3VtMMgP7b-6" vertex="1">
          <mxGeometry x="30" width="100" height="30" as="geometry" />
        </mxCell>
        <mxCell id="C-vyLk0tnHw3VtMMgP7b-9" value="" style="shape=partialRectangle;collapsible=0;dropTarget=0;pointerEvents=0;fillColor=none;points=[[0,0.5],[1,0.5]];portConstraint=eastwest;top=0;left=0;right=0;bottom=0;" parent="C-vyLk0tnHw3VtMMgP7b-2" vertex="1">
          <mxGeometry y="90" width="130" height="30" as="geometry" />
        </mxCell>
        <mxCell id="C-vyLk0tnHw3VtMMgP7b-10" value="" style="shape=partialRectangle;overflow=hidden;connectable=0;fillColor=none;top=0;left=0;bottom=0;right=0;" parent="C-vyLk0tnHw3VtMMgP7b-9" vertex="1">
          <mxGeometry width="30" height="30" as="geometry" />
        </mxCell>
        <mxCell id="C-vyLk0tnHw3VtMMgP7b-11" value="title" style="shape=partialRectangle;overflow=hidden;connectable=0;fillColor=none;top=0;left=0;bottom=0;right=0;align=left;spacingLeft=6;" parent="C-vyLk0tnHw3VtMMgP7b-9" vertex="1">
          <mxGeometry x="30" width="100" height="30" as="geometry" />
        </mxCell>
        <mxCell id="k0YBy9jvbveZik2iZrXQ-40" value="" style="shape=partialRectangle;overflow=hidden;connectable=0;fillColor=none;top=0;left=0;bottom=0;right=0;" parent="k0YBy9jvbveZik2iZrXQ-355" vertex="1">
          <mxGeometry y="120" width="15.600000000000001" height="30" as="geometry" />
        </mxCell>
        <mxCell id="k0YBy9jvbveZik2iZrXQ-41" value="forum_doc" style="shape=partialRectangle;overflow=hidden;connectable=0;fillColor=none;top=0;left=0;bottom=0;right=0;align=left;spacingLeft=6;" parent="k0YBy9jvbveZik2iZrXQ-355" vertex="1">
          <mxGeometry x="30" y="120" width="100" height="30" as="geometry" />
        </mxCell>
        <mxCell id="k0YBy9jvbveZik2iZrXQ-42" value="" style="shape=partialRectangle;overflow=hidden;connectable=0;fillColor=none;top=0;left=0;bottom=0;right=0;" parent="k0YBy9jvbveZik2iZrXQ-355" vertex="1">
          <mxGeometry y="150" width="15.600000000000001" height="30" as="geometry" />
        </mxCell>
        <mxCell id="k0YBy9jvbveZik2iZrXQ-43" value="body" style="shape=partialRectangle;overflow=hidden;connectable=0;fillColor=none;top=0;left=0;bottom=0;right=0;align=left;spacingLeft=6;" parent="k0YBy9jvbveZik2iZrXQ-355" vertex="1">
          <mxGeometry x="30" y="150" width="100" height="30" as="geometry" />
        </mxCell>
        <mxCell id="k0YBy9jvbveZik2iZrXQ-44" value="" style="shape=partialRectangle;overflow=hidden;connectable=0;fillColor=none;top=0;left=0;bottom=0;right=0;" parent="k0YBy9jvbveZik2iZrXQ-355" vertex="1">
          <mxGeometry y="180" width="15.600000000000001" height="30" as="geometry" />
        </mxCell>
        <mxCell id="k0YBy9jvbveZik2iZrXQ-45" value="publish" style="shape=partialRectangle;overflow=hidden;connectable=0;fillColor=none;top=0;left=0;bottom=0;right=0;align=left;spacingLeft=6;" parent="k0YBy9jvbveZik2iZrXQ-355" vertex="1">
          <mxGeometry x="30" y="180" width="100" height="30" as="geometry" />
        </mxCell>
        <mxCell id="k0YBy9jvbveZik2iZrXQ-46" value="" style="shape=partialRectangle;overflow=hidden;connectable=0;fillColor=none;top=0;left=0;bottom=0;right=0;" parent="k0YBy9jvbveZik2iZrXQ-355" vertex="1">
          <mxGeometry y="210" width="15.600000000000001" height="30" as="geometry" />
        </mxCell>
        <mxCell id="k0YBy9jvbveZik2iZrXQ-47" value="created_at" style="shape=partialRectangle;overflow=hidden;connectable=0;fillColor=none;top=0;left=0;bottom=0;right=0;align=left;spacingLeft=6;" parent="k0YBy9jvbveZik2iZrXQ-355" vertex="1">
          <mxGeometry x="30" y="210" width="100" height="30" as="geometry" />
        </mxCell>
        <mxCell id="k0YBy9jvbveZik2iZrXQ-48" value="" style="shape=partialRectangle;overflow=hidden;connectable=0;fillColor=none;top=0;left=0;bottom=0;right=0;" parent="k0YBy9jvbveZik2iZrXQ-355" vertex="1">
          <mxGeometry y="240" width="15.600000000000001" height="30" as="geometry" />
        </mxCell>
        <mxCell id="k0YBy9jvbveZik2iZrXQ-49" value="updated_at" style="shape=partialRectangle;overflow=hidden;connectable=0;fillColor=none;top=0;left=0;bottom=0;right=0;align=left;spacingLeft=6;" parent="k0YBy9jvbveZik2iZrXQ-355" vertex="1">
          <mxGeometry x="30" y="240" width="100" height="30" as="geometry" />
        </mxCell>
        <mxCell id="DKVE91QT-Wi4sXG9R5Rw-1" value="" style="group" parent="1" vertex="1" connectable="0">
          <mxGeometry x="270" y="590" width="140" height="270" as="geometry" />
        </mxCell>
        <mxCell id="k0YBy9jvbveZik2iZrXQ-213" value="teacher_id" style="shape=table;startSize=30;container=1;collapsible=1;childLayout=tableLayout;fixedRows=1;rowLines=0;fontStyle=1;align=center;resizeLast=1;" parent="DKVE91QT-Wi4sXG9R5Rw-1" vertex="1">
          <mxGeometry width="140" height="270" as="geometry" />
        </mxCell>
        <mxCell id="k0YBy9jvbveZik2iZrXQ-214" value="" style="shape=partialRectangle;collapsible=0;dropTarget=0;pointerEvents=0;fillColor=none;points=[[0,0.5],[1,0.5]];portConstraint=eastwest;top=0;left=0;right=0;bottom=1;" parent="k0YBy9jvbveZik2iZrXQ-213" vertex="1">
          <mxGeometry y="30" width="140" height="30" as="geometry" />
        </mxCell>
        <mxCell id="k0YBy9jvbveZik2iZrXQ-215" value="PK" style="shape=partialRectangle;overflow=hidden;connectable=0;fillColor=none;top=0;left=0;bottom=0;right=0;fontStyle=1;" parent="k0YBy9jvbveZik2iZrXQ-214" vertex="1">
          <mxGeometry width="30" height="30" as="geometry" />
        </mxCell>
        <mxCell id="k0YBy9jvbveZik2iZrXQ-216" value="teacher_id" style="shape=partialRectangle;overflow=hidden;connectable=0;fillColor=none;top=0;left=0;bottom=0;right=0;align=left;spacingLeft=6;fontStyle=5;" parent="k0YBy9jvbveZik2iZrXQ-214" vertex="1">
          <mxGeometry x="30" width="110" height="30" as="geometry" />
        </mxCell>
        <mxCell id="k0YBy9jvbveZik2iZrXQ-217" value="" style="shape=partialRectangle;collapsible=0;dropTarget=0;pointerEvents=0;fillColor=none;points=[[0,0.5],[1,0.5]];portConstraint=eastwest;top=0;left=0;right=0;bottom=0;" parent="k0YBy9jvbveZik2iZrXQ-213" vertex="1">
          <mxGeometry y="60" width="140" height="30" as="geometry" />
        </mxCell>
        <mxCell id="k0YBy9jvbveZik2iZrXQ-218" value="FK1" style="shape=partialRectangle;overflow=hidden;connectable=0;fillColor=none;top=0;left=0;bottom=0;right=0;" parent="k0YBy9jvbveZik2iZrXQ-217" vertex="1">
          <mxGeometry width="30" height="30" as="geometry" />
        </mxCell>
        <mxCell id="k0YBy9jvbveZik2iZrXQ-219" value="user_id" style="shape=partialRectangle;overflow=hidden;connectable=0;fillColor=none;top=0;left=0;bottom=0;right=0;align=left;spacingLeft=6;" parent="k0YBy9jvbveZik2iZrXQ-217" vertex="1">
          <mxGeometry x="30" width="110" height="30" as="geometry" />
        </mxCell>
        <mxCell id="k0YBy9jvbveZik2iZrXQ-220" value="" style="shape=partialRectangle;collapsible=0;dropTarget=0;pointerEvents=0;fillColor=none;points=[[0,0.5],[1,0.5]];portConstraint=eastwest;top=0;left=0;right=0;bottom=0;" parent="k0YBy9jvbveZik2iZrXQ-213" vertex="1">
          <mxGeometry y="90" width="140" height="30" as="geometry" />
        </mxCell>
        <mxCell id="k0YBy9jvbveZik2iZrXQ-221" value="" style="shape=partialRectangle;overflow=hidden;connectable=0;fillColor=none;top=0;left=0;bottom=0;right=0;" parent="k0YBy9jvbveZik2iZrXQ-220" vertex="1">
          <mxGeometry width="30" height="30" as="geometry" />
        </mxCell>
        <mxCell id="k0YBy9jvbveZik2iZrXQ-222" value="grade_id" style="shape=partialRectangle;overflow=hidden;connectable=0;fillColor=none;top=0;left=0;bottom=0;right=0;align=left;spacingLeft=6;" parent="k0YBy9jvbveZik2iZrXQ-220" vertex="1">
          <mxGeometry x="30" width="110" height="30" as="geometry" />
        </mxCell>
        <mxCell id="k0YBy9jvbveZik2iZrXQ-223" value="" style="shape=partialRectangle;overflow=hidden;connectable=0;fillColor=none;top=0;left=0;bottom=0;right=0;" parent="DKVE91QT-Wi4sXG9R5Rw-1" vertex="1">
          <mxGeometry y="120" width="30" height="30" as="geometry" />
        </mxCell>
        <mxCell id="k0YBy9jvbveZik2iZrXQ-224" value="subject_id" style="shape=partialRectangle;overflow=hidden;connectable=0;fillColor=none;top=0;left=0;bottom=0;right=0;align=left;spacingLeft=6;" parent="DKVE91QT-Wi4sXG9R5Rw-1" vertex="1">
          <mxGeometry x="30" y="120" width="110" height="30" as="geometry" />
        </mxCell>
        <mxCell id="k0YBy9jvbveZik2iZrXQ-225" value="" style="shape=partialRectangle;overflow=hidden;connectable=0;fillColor=none;top=0;left=0;bottom=0;right=0;" parent="DKVE91QT-Wi4sXG9R5Rw-1" vertex="1">
          <mxGeometry y="150" width="30" height="30" as="geometry" />
        </mxCell>
        <mxCell id="k0YBy9jvbveZik2iZrXQ-226" value="isActive" style="shape=partialRectangle;overflow=hidden;connectable=0;fillColor=none;top=0;left=0;bottom=0;right=0;align=left;spacingLeft=6;" parent="DKVE91QT-Wi4sXG9R5Rw-1" vertex="1">
          <mxGeometry x="30" y="150" width="110" height="30" as="geometry" />
        </mxCell>
        <mxCell id="k0YBy9jvbveZik2iZrXQ-227" value="" style="shape=partialRectangle;overflow=hidden;connectable=0;fillColor=none;top=0;left=0;bottom=0;right=0;" parent="DKVE91QT-Wi4sXG9R5Rw-1" vertex="1">
          <mxGeometry y="180" width="30" height="30" as="geometry" />
        </mxCell>
        <mxCell id="k0YBy9jvbveZik2iZrXQ-228" value="isDelete" style="shape=partialRectangle;overflow=hidden;connectable=0;fillColor=none;top=0;left=0;bottom=0;right=0;align=left;spacingLeft=6;" parent="DKVE91QT-Wi4sXG9R5Rw-1" vertex="1">
          <mxGeometry x="30" y="180" width="110" height="30" as="geometry" />
        </mxCell>
        <mxCell id="k0YBy9jvbveZik2iZrXQ-229" value="" style="shape=partialRectangle;overflow=hidden;connectable=0;fillColor=none;top=0;left=0;bottom=0;right=0;" parent="DKVE91QT-Wi4sXG9R5Rw-1" vertex="1">
          <mxGeometry y="210" width="30" height="30" as="geometry" />
        </mxCell>
        <mxCell id="k0YBy9jvbveZik2iZrXQ-230" value="created_at" style="shape=partialRectangle;overflow=hidden;connectable=0;fillColor=none;top=0;left=0;bottom=0;right=0;align=left;spacingLeft=6;" parent="DKVE91QT-Wi4sXG9R5Rw-1" vertex="1">
          <mxGeometry x="30" y="210" width="110" height="30" as="geometry" />
        </mxCell>
        <mxCell id="k0YBy9jvbveZik2iZrXQ-231" value="" style="shape=partialRectangle;overflow=hidden;connectable=0;fillColor=none;top=0;left=0;bottom=0;right=0;" parent="DKVE91QT-Wi4sXG9R5Rw-1" vertex="1">
          <mxGeometry y="240" width="30" height="30" as="geometry" />
        </mxCell>
        <mxCell id="k0YBy9jvbveZik2iZrXQ-232" value="updated_at" style="shape=partialRectangle;overflow=hidden;connectable=0;fillColor=none;top=0;left=0;bottom=0;right=0;align=left;spacingLeft=6;" parent="DKVE91QT-Wi4sXG9R5Rw-1" vertex="1">
          <mxGeometry x="30" y="240" width="110" height="30" as="geometry" />
        </mxCell>
        <mxCell id="DKVE91QT-Wi4sXG9R5Rw-2" value="" style="group" parent="1" vertex="1" connectable="0">
          <mxGeometry x="450" y="40" width="130" height="180" as="geometry" />
        </mxCell>
        <mxCell id="k0YBy9jvbveZik2iZrXQ-96" value="roles" style="shape=table;startSize=30;container=1;collapsible=1;childLayout=tableLayout;fixedRows=1;rowLines=0;fontStyle=1;align=center;resizeLast=1;" parent="DKVE91QT-Wi4sXG9R5Rw-2" vertex="1">
          <mxGeometry width="130" height="180" as="geometry" />
        </mxCell>
        <mxCell id="k0YBy9jvbveZik2iZrXQ-97" value="" style="shape=partialRectangle;collapsible=0;dropTarget=0;pointerEvents=0;fillColor=none;points=[[0,0.5],[1,0.5]];portConstraint=eastwest;top=0;left=0;right=0;bottom=1;" parent="k0YBy9jvbveZik2iZrXQ-96" vertex="1">
          <mxGeometry y="30" width="130" height="30" as="geometry" />
        </mxCell>
        <mxCell id="k0YBy9jvbveZik2iZrXQ-98" value="PK" style="shape=partialRectangle;overflow=hidden;connectable=0;fillColor=none;top=0;left=0;bottom=0;right=0;fontStyle=1;" parent="k0YBy9jvbveZik2iZrXQ-97" vertex="1">
          <mxGeometry width="30" height="30" as="geometry" />
        </mxCell>
        <mxCell id="k0YBy9jvbveZik2iZrXQ-99" value="id" style="shape=partialRectangle;overflow=hidden;connectable=0;fillColor=none;top=0;left=0;bottom=0;right=0;align=left;spacingLeft=6;fontStyle=5;" parent="k0YBy9jvbveZik2iZrXQ-97" vertex="1">
          <mxGeometry x="30" width="100" height="30" as="geometry" />
        </mxCell>
        <mxCell id="k0YBy9jvbveZik2iZrXQ-103" value="" style="shape=partialRectangle;collapsible=0;dropTarget=0;pointerEvents=0;fillColor=none;points=[[0,0.5],[1,0.5]];portConstraint=eastwest;top=0;left=0;right=0;bottom=0;" parent="k0YBy9jvbveZik2iZrXQ-96" vertex="1">
          <mxGeometry y="60" width="130" height="30" as="geometry" />
        </mxCell>
        <mxCell id="k0YBy9jvbveZik2iZrXQ-104" value="" style="shape=partialRectangle;overflow=hidden;connectable=0;fillColor=none;top=0;left=0;bottom=0;right=0;" parent="k0YBy9jvbveZik2iZrXQ-103" vertex="1">
          <mxGeometry width="30" height="30" as="geometry" />
        </mxCell>
        <mxCell id="k0YBy9jvbveZik2iZrXQ-105" value="name" style="shape=partialRectangle;overflow=hidden;connectable=0;fillColor=none;top=0;left=0;bottom=0;right=0;align=left;spacingLeft=6;" parent="k0YBy9jvbveZik2iZrXQ-103" vertex="1">
          <mxGeometry x="30" width="100" height="30" as="geometry" />
        </mxCell>
        <mxCell id="k0YBy9jvbveZik2iZrXQ-106" value="" style="shape=partialRectangle;overflow=hidden;connectable=0;fillColor=none;top=0;left=0;bottom=0;right=0;" parent="DKVE91QT-Wi4sXG9R5Rw-2" vertex="1">
          <mxGeometry y="120" width="30" height="30" as="geometry" />
        </mxCell>
        <mxCell id="k0YBy9jvbveZik2iZrXQ-107" value="slug" style="shape=partialRectangle;overflow=hidden;connectable=0;fillColor=none;top=0;left=0;bottom=0;right=0;align=left;spacingLeft=6;" parent="DKVE91QT-Wi4sXG9R5Rw-2" vertex="1">
          <mxGeometry x="30" y="90" width="100" height="30" as="geometry" />
        </mxCell>
        <mxCell id="k0YBy9jvbveZik2iZrXQ-108" value="" style="shape=partialRectangle;overflow=hidden;connectable=0;fillColor=none;top=0;left=0;bottom=0;right=0;" parent="DKVE91QT-Wi4sXG9R5Rw-2" vertex="1">
          <mxGeometry y="150" width="30" height="30" as="geometry" />
        </mxCell>
        <mxCell id="k0YBy9jvbveZik2iZrXQ-113" value="created_at" style="shape=partialRectangle;overflow=hidden;connectable=0;fillColor=none;top=0;left=0;bottom=0;right=0;align=left;spacingLeft=6;" parent="DKVE91QT-Wi4sXG9R5Rw-2" vertex="1">
          <mxGeometry x="30" y="120" width="100" height="30" as="geometry" />
        </mxCell>
        <mxCell id="k0YBy9jvbveZik2iZrXQ-115" value="updated_at" style="shape=partialRectangle;overflow=hidden;connectable=0;fillColor=none;top=0;left=0;bottom=0;right=0;align=left;spacingLeft=6;" parent="DKVE91QT-Wi4sXG9R5Rw-2" vertex="1">
          <mxGeometry x="30" y="150" width="100" height="30" as="geometry" />
        </mxCell>
        <mxCell id="DKVE91QT-Wi4sXG9R5Rw-4" value="" style="group" parent="1" vertex="1" connectable="0">
          <mxGeometry x="240" y="50" width="140" height="270" as="geometry" />
        </mxCell>
        <mxCell id="k0YBy9jvbveZik2iZrXQ-280" value="subjects" style="shape=table;startSize=30;container=1;collapsible=1;childLayout=tableLayout;fixedRows=1;rowLines=0;fontStyle=1;align=center;resizeLast=1;" parent="DKVE91QT-Wi4sXG9R5Rw-4" vertex="1">
          <mxGeometry width="140" height="270" as="geometry" />
        </mxCell>
        <mxCell id="k0YBy9jvbveZik2iZrXQ-281" value="" style="shape=partialRectangle;collapsible=0;dropTarget=0;pointerEvents=0;fillColor=none;points=[[0,0.5],[1,0.5]];portConstraint=eastwest;top=0;left=0;right=0;bottom=1;" parent="k0YBy9jvbveZik2iZrXQ-280" vertex="1">
          <mxGeometry y="30" width="140" height="30" as="geometry" />
        </mxCell>
        <mxCell id="k0YBy9jvbveZik2iZrXQ-282" value="PK" style="shape=partialRectangle;overflow=hidden;connectable=0;fillColor=none;top=0;left=0;bottom=0;right=0;fontStyle=1;" parent="k0YBy9jvbveZik2iZrXQ-281" vertex="1">
          <mxGeometry width="30" height="30" as="geometry" />
        </mxCell>
        <mxCell id="k0YBy9jvbveZik2iZrXQ-283" value="subject_id" style="shape=partialRectangle;overflow=hidden;connectable=0;fillColor=none;top=0;left=0;bottom=0;right=0;align=left;spacingLeft=6;fontStyle=5;" parent="k0YBy9jvbveZik2iZrXQ-281" vertex="1">
          <mxGeometry x="30" width="110" height="30" as="geometry" />
        </mxCell>
        <mxCell id="k0YBy9jvbveZik2iZrXQ-284" value="" style="shape=partialRectangle;collapsible=0;dropTarget=0;pointerEvents=0;fillColor=none;points=[[0,0.5],[1,0.5]];portConstraint=eastwest;top=0;left=0;right=0;bottom=0;" parent="k0YBy9jvbveZik2iZrXQ-280" vertex="1">
          <mxGeometry y="60" width="140" height="30" as="geometry" />
        </mxCell>
        <mxCell id="k0YBy9jvbveZik2iZrXQ-285" value="" style="shape=partialRectangle;overflow=hidden;connectable=0;fillColor=none;top=0;left=0;bottom=0;right=0;" parent="k0YBy9jvbveZik2iZrXQ-284" vertex="1">
          <mxGeometry width="30" height="30" as="geometry" />
        </mxCell>
        <mxCell id="k0YBy9jvbveZik2iZrXQ-286" value="subject_title" style="shape=partialRectangle;overflow=hidden;connectable=0;fillColor=none;top=0;left=0;bottom=0;right=0;align=left;spacingLeft=6;" parent="k0YBy9jvbveZik2iZrXQ-284" vertex="1">
          <mxGeometry x="30" width="110" height="30" as="geometry" />
        </mxCell>
        <mxCell id="k0YBy9jvbveZik2iZrXQ-287" value="" style="shape=partialRectangle;collapsible=0;dropTarget=0;pointerEvents=0;fillColor=none;points=[[0,0.5],[1,0.5]];portConstraint=eastwest;top=0;left=0;right=0;bottom=0;" parent="k0YBy9jvbveZik2iZrXQ-280" vertex="1">
          <mxGeometry y="90" width="140" height="30" as="geometry" />
        </mxCell>
        <mxCell id="k0YBy9jvbveZik2iZrXQ-288" value="" style="shape=partialRectangle;overflow=hidden;connectable=0;fillColor=none;top=0;left=0;bottom=0;right=0;" parent="k0YBy9jvbveZik2iZrXQ-287" vertex="1">
          <mxGeometry width="30" height="30" as="geometry" />
        </mxCell>
        <mxCell id="k0YBy9jvbveZik2iZrXQ-289" value="subject_slug" style="shape=partialRectangle;overflow=hidden;connectable=0;fillColor=none;top=0;left=0;bottom=0;right=0;align=left;spacingLeft=6;" parent="k0YBy9jvbveZik2iZrXQ-287" vertex="1">
          <mxGeometry x="30" width="110" height="30" as="geometry" />
        </mxCell>
        <mxCell id="k0YBy9jvbveZik2iZrXQ-290" value="" style="shape=partialRectangle;overflow=hidden;connectable=0;fillColor=none;top=0;left=0;bottom=0;right=0;" parent="DKVE91QT-Wi4sXG9R5Rw-4" vertex="1">
          <mxGeometry y="150" width="21.599999999999998" height="30.000000000000004" as="geometry" />
        </mxCell>
        <mxCell id="k0YBy9jvbveZik2iZrXQ-291" value="isActive" style="shape=partialRectangle;overflow=hidden;connectable=0;fillColor=none;top=0;left=0;bottom=0;right=0;align=left;spacingLeft=6;" parent="DKVE91QT-Wi4sXG9R5Rw-4" vertex="1">
          <mxGeometry x="30" y="150" width="110" height="30" as="geometry" />
        </mxCell>
        <mxCell id="k0YBy9jvbveZik2iZrXQ-292" value="" style="shape=partialRectangle;overflow=hidden;connectable=0;fillColor=none;top=0;left=0;bottom=0;right=0;" parent="DKVE91QT-Wi4sXG9R5Rw-4" vertex="1">
          <mxGeometry y="180" width="21.599999999999998" height="30.000000000000004" as="geometry" />
        </mxCell>
        <mxCell id="k0YBy9jvbveZik2iZrXQ-293" value="isDelete" style="shape=partialRectangle;overflow=hidden;connectable=0;fillColor=none;top=0;left=0;bottom=0;right=0;align=left;spacingLeft=6;" parent="DKVE91QT-Wi4sXG9R5Rw-4" vertex="1">
          <mxGeometry x="30" y="180" width="110" height="30" as="geometry" />
        </mxCell>
        <mxCell id="k0YBy9jvbveZik2iZrXQ-294" value="" style="shape=partialRectangle;overflow=hidden;connectable=0;fillColor=none;top=0;left=0;bottom=0;right=0;" parent="DKVE91QT-Wi4sXG9R5Rw-4" vertex="1">
          <mxGeometry y="210" width="21.599999999999998" height="30.000000000000004" as="geometry" />
        </mxCell>
        <mxCell id="k0YBy9jvbveZik2iZrXQ-295" value="created_at" style="shape=partialRectangle;overflow=hidden;connectable=0;fillColor=none;top=0;left=0;bottom=0;right=0;align=left;spacingLeft=6;" parent="DKVE91QT-Wi4sXG9R5Rw-4" vertex="1">
          <mxGeometry x="30" y="210" width="110" height="30" as="geometry" />
        </mxCell>
        <mxCell id="k0YBy9jvbveZik2iZrXQ-296" value="" style="shape=partialRectangle;overflow=hidden;connectable=0;fillColor=none;top=0;left=0;bottom=0;right=0;" parent="DKVE91QT-Wi4sXG9R5Rw-4" vertex="1">
          <mxGeometry y="240" width="21.599999999999998" height="30.000000000000004" as="geometry" />
        </mxCell>
        <mxCell id="k0YBy9jvbveZik2iZrXQ-297" value="updated_at" style="shape=partialRectangle;overflow=hidden;connectable=0;fillColor=none;top=0;left=0;bottom=0;right=0;align=left;spacingLeft=6;" parent="DKVE91QT-Wi4sXG9R5Rw-4" vertex="1">
          <mxGeometry x="30" y="240" width="110" height="30" as="geometry" />
        </mxCell>
        <mxCell id="k0YBy9jvbveZik2iZrXQ-298" value="publish" style="shape=partialRectangle;overflow=hidden;connectable=0;fillColor=none;top=0;left=0;bottom=0;right=0;align=left;spacingLeft=6;" parent="DKVE91QT-Wi4sXG9R5Rw-4" vertex="1">
          <mxGeometry x="30" y="120" width="110" height="30" as="geometry" />
        </mxCell>
        <mxCell id="DKVE91QT-Wi4sXG9R5Rw-5" value="" style="group" parent="1" vertex="1" connectable="0">
          <mxGeometry x="50" y="600" width="160" height="210.00000000000003" as="geometry" />
        </mxCell>
        <mxCell id="k0YBy9jvbveZik2iZrXQ-234" value="student_id" style="shape=table;startSize=30;container=1;collapsible=1;childLayout=tableLayout;fixedRows=1;rowLines=0;fontStyle=1;align=center;resizeLast=1;" parent="DKVE91QT-Wi4sXG9R5Rw-5" vertex="1">
          <mxGeometry width="160" height="210" as="geometry" />
        </mxCell>
        <mxCell id="k0YBy9jvbveZik2iZrXQ-235" value="" style="shape=partialRectangle;collapsible=0;dropTarget=0;pointerEvents=0;fillColor=none;points=[[0,0.5],[1,0.5]];portConstraint=eastwest;top=0;left=0;right=0;bottom=1;" parent="k0YBy9jvbveZik2iZrXQ-234" vertex="1">
          <mxGeometry y="30" width="160" height="30" as="geometry" />
        </mxCell>
        <mxCell id="k0YBy9jvbveZik2iZrXQ-236" value="PK" style="shape=partialRectangle;overflow=hidden;connectable=0;fillColor=none;top=0;left=0;bottom=0;right=0;fontStyle=1;" parent="k0YBy9jvbveZik2iZrXQ-235" vertex="1">
          <mxGeometry width="30" height="30" as="geometry" />
        </mxCell>
        <mxCell id="k0YBy9jvbveZik2iZrXQ-237" value="student_id" style="shape=partialRectangle;overflow=hidden;connectable=0;fillColor=none;top=0;left=0;bottom=0;right=0;align=left;spacingLeft=6;fontStyle=5;" parent="k0YBy9jvbveZik2iZrXQ-235" vertex="1">
          <mxGeometry x="30" width="130" height="30" as="geometry" />
        </mxCell>
        <mxCell id="k0YBy9jvbveZik2iZrXQ-238" value="" style="shape=partialRectangle;collapsible=0;dropTarget=0;pointerEvents=0;fillColor=none;points=[[0,0.5],[1,0.5]];portConstraint=eastwest;top=0;left=0;right=0;bottom=0;" parent="k0YBy9jvbveZik2iZrXQ-234" vertex="1">
          <mxGeometry y="60" width="160" height="30" as="geometry" />
        </mxCell>
        <mxCell id="k0YBy9jvbveZik2iZrXQ-239" value="FK1" style="shape=partialRectangle;overflow=hidden;connectable=0;fillColor=none;top=0;left=0;bottom=0;right=0;" parent="k0YBy9jvbveZik2iZrXQ-238" vertex="1">
          <mxGeometry width="30" height="30" as="geometry" />
        </mxCell>
        <mxCell id="k0YBy9jvbveZik2iZrXQ-240" value="user_id" style="shape=partialRectangle;overflow=hidden;connectable=0;fillColor=none;top=0;left=0;bottom=0;right=0;align=left;spacingLeft=6;" parent="k0YBy9jvbveZik2iZrXQ-238" vertex="1">
          <mxGeometry x="30" width="130" height="30" as="geometry" />
        </mxCell>
        <mxCell id="k0YBy9jvbveZik2iZrXQ-241" value="" style="shape=partialRectangle;collapsible=0;dropTarget=0;pointerEvents=0;fillColor=none;points=[[0,0.5],[1,0.5]];portConstraint=eastwest;top=0;left=0;right=0;bottom=0;" parent="k0YBy9jvbveZik2iZrXQ-234" vertex="1">
          <mxGeometry y="90" width="160" height="30" as="geometry" />
        </mxCell>
        <mxCell id="k0YBy9jvbveZik2iZrXQ-242" value="" style="shape=partialRectangle;overflow=hidden;connectable=0;fillColor=none;top=0;left=0;bottom=0;right=0;" parent="k0YBy9jvbveZik2iZrXQ-241" vertex="1">
          <mxGeometry width="30" height="30" as="geometry" />
        </mxCell>
        <mxCell id="k0YBy9jvbveZik2iZrXQ-243" value="grade_id" style="shape=partialRectangle;overflow=hidden;connectable=0;fillColor=none;top=0;left=0;bottom=0;right=0;align=left;spacingLeft=6;" parent="k0YBy9jvbveZik2iZrXQ-241" vertex="1">
          <mxGeometry x="30" width="130" height="30" as="geometry" />
        </mxCell>
        <mxCell id="k0YBy9jvbveZik2iZrXQ-244" value="FK2" style="shape=partialRectangle;overflow=hidden;connectable=0;fillColor=none;top=0;left=0;bottom=0;right=0;" parent="DKVE91QT-Wi4sXG9R5Rw-5" vertex="1">
          <mxGeometry y="93.33333333333337" width="30" height="23.333333333333336" as="geometry" />
        </mxCell>
        <mxCell id="k0YBy9jvbveZik2iZrXQ-246" value="" style="shape=partialRectangle;overflow=hidden;connectable=0;fillColor=none;top=0;left=0;bottom=0;right=0;" parent="DKVE91QT-Wi4sXG9R5Rw-5" vertex="1">
          <mxGeometry y="116.66666666666669" width="30" height="23.333333333333336" as="geometry" />
        </mxCell>
        <mxCell id="k0YBy9jvbveZik2iZrXQ-247" value="isActive" style="shape=partialRectangle;overflow=hidden;connectable=0;fillColor=none;top=0;left=0;bottom=0;right=0;align=left;spacingLeft=6;" parent="DKVE91QT-Wi4sXG9R5Rw-5" vertex="1">
          <mxGeometry x="30" y="116.67000000000002" width="130" height="23.33" as="geometry" />
        </mxCell>
        <mxCell id="k0YBy9jvbveZik2iZrXQ-248" value="" style="shape=partialRectangle;overflow=hidden;connectable=0;fillColor=none;top=0;left=0;bottom=0;right=0;" parent="DKVE91QT-Wi4sXG9R5Rw-5" vertex="1">
          <mxGeometry y="140" width="30" height="23.333333333333336" as="geometry" />
        </mxCell>
        <mxCell id="k0YBy9jvbveZik2iZrXQ-249" value="isDelete" style="shape=partialRectangle;overflow=hidden;connectable=0;fillColor=none;top=0;left=0;bottom=0;right=0;align=left;spacingLeft=6;" parent="DKVE91QT-Wi4sXG9R5Rw-5" vertex="1">
          <mxGeometry x="30" y="140" width="130" height="23.33" as="geometry" />
        </mxCell>
        <mxCell id="k0YBy9jvbveZik2iZrXQ-250" value="" style="shape=partialRectangle;overflow=hidden;connectable=0;fillColor=none;top=0;left=0;bottom=0;right=0;" parent="DKVE91QT-Wi4sXG9R5Rw-5" vertex="1">
          <mxGeometry y="163.33333333333331" width="30" height="23.333333333333336" as="geometry" />
        </mxCell>
        <mxCell id="k0YBy9jvbveZik2iZrXQ-251" value="created_at" style="shape=partialRectangle;overflow=hidden;connectable=0;fillColor=none;top=0;left=0;bottom=0;right=0;align=left;spacingLeft=6;" parent="DKVE91QT-Wi4sXG9R5Rw-5" vertex="1">
          <mxGeometry x="30" y="163.33000000000004" width="130" height="23.33" as="geometry" />
        </mxCell>
        <mxCell id="k0YBy9jvbveZik2iZrXQ-252" value="" style="shape=partialRectangle;overflow=hidden;connectable=0;fillColor=none;top=0;left=0;bottom=0;right=0;" parent="DKVE91QT-Wi4sXG9R5Rw-5" vertex="1">
          <mxGeometry y="186.66666666666669" width="30" height="23.333333333333336" as="geometry" />
        </mxCell>
        <mxCell id="k0YBy9jvbveZik2iZrXQ-253" value="updated_at" style="shape=partialRectangle;overflow=hidden;connectable=0;fillColor=none;top=0;left=0;bottom=0;right=0;align=left;spacingLeft=6;" parent="DKVE91QT-Wi4sXG9R5Rw-5" vertex="1">
          <mxGeometry x="30" y="186.66999999999996" width="130" height="23.33" as="geometry" />
        </mxCell>
        <mxCell id="6iXqchDlvQ4-PBqipfJh-59" value="" style="group" vertex="1" connectable="0" parent="1">
          <mxGeometry x="140" y="920" width="140" height="390" as="geometry" />
        </mxCell>
        <mxCell id="6iXqchDlvQ4-PBqipfJh-27" value="submissions" style="shape=table;startSize=30;container=1;collapsible=1;childLayout=tableLayout;fixedRows=1;rowLines=0;fontStyle=1;align=center;resizeLast=1;" vertex="1" parent="6iXqchDlvQ4-PBqipfJh-59">
          <mxGeometry width="140" height="390" as="geometry" />
        </mxCell>
        <mxCell id="6iXqchDlvQ4-PBqipfJh-28" value="" style="shape=partialRectangle;collapsible=0;dropTarget=0;pointerEvents=0;fillColor=none;points=[[0,0.5],[1,0.5]];portConstraint=eastwest;top=0;left=0;right=0;bottom=1;" vertex="1" parent="6iXqchDlvQ4-PBqipfJh-27">
          <mxGeometry y="30" width="140" height="30" as="geometry" />
        </mxCell>
        <mxCell id="6iXqchDlvQ4-PBqipfJh-29" value="PK" style="shape=partialRectangle;overflow=hidden;connectable=0;fillColor=none;top=0;left=0;bottom=0;right=0;fontStyle=1;" vertex="1" parent="6iXqchDlvQ4-PBqipfJh-28">
          <mxGeometry width="30" height="30" as="geometry" />
        </mxCell>
        <mxCell id="6iXqchDlvQ4-PBqipfJh-30" value="submission_id" style="shape=partialRectangle;overflow=hidden;connectable=0;fillColor=none;top=0;left=0;bottom=0;right=0;align=left;spacingLeft=6;fontStyle=5;" vertex="1" parent="6iXqchDlvQ4-PBqipfJh-28">
          <mxGeometry x="30" width="110" height="30" as="geometry" />
        </mxCell>
        <mxCell id="6iXqchDlvQ4-PBqipfJh-31" value="" style="shape=partialRectangle;collapsible=0;dropTarget=0;pointerEvents=0;fillColor=none;points=[[0,0.5],[1,0.5]];portConstraint=eastwest;top=0;left=0;right=0;bottom=0;" vertex="1" parent="6iXqchDlvQ4-PBqipfJh-27">
          <mxGeometry y="60" width="140" height="30" as="geometry" />
        </mxCell>
        <mxCell id="6iXqchDlvQ4-PBqipfJh-32" value="FK1" style="shape=partialRectangle;overflow=hidden;connectable=0;fillColor=none;top=0;left=0;bottom=0;right=0;" vertex="1" parent="6iXqchDlvQ4-PBqipfJh-31">
          <mxGeometry width="30" height="30" as="geometry" />
        </mxCell>
        <mxCell id="6iXqchDlvQ4-PBqipfJh-33" value="student_id" style="shape=partialRectangle;overflow=hidden;connectable=0;fillColor=none;top=0;left=0;bottom=0;right=0;align=left;spacingLeft=6;" vertex="1" parent="6iXqchDlvQ4-PBqipfJh-31">
          <mxGeometry x="30" width="110" height="30" as="geometry" />
        </mxCell>
        <mxCell id="6iXqchDlvQ4-PBqipfJh-34" value="" style="shape=partialRectangle;collapsible=0;dropTarget=0;pointerEvents=0;fillColor=none;points=[[0,0.5],[1,0.5]];portConstraint=eastwest;top=0;left=0;right=0;bottom=0;" vertex="1" parent="6iXqchDlvQ4-PBqipfJh-27">
          <mxGeometry y="90" width="140" height="30" as="geometry" />
        </mxCell>
        <mxCell id="6iXqchDlvQ4-PBqipfJh-35" value="FK2" style="shape=partialRectangle;overflow=hidden;connectable=0;fillColor=none;top=0;left=0;bottom=0;right=0;" vertex="1" parent="6iXqchDlvQ4-PBqipfJh-34">
          <mxGeometry width="30" height="30" as="geometry" />
        </mxCell>
        <mxCell id="6iXqchDlvQ4-PBqipfJh-36" value="post_id" style="shape=partialRectangle;overflow=hidden;connectable=0;fillColor=none;top=0;left=0;bottom=0;right=0;align=left;spacingLeft=6;" vertex="1" parent="6iXqchDlvQ4-PBqipfJh-34">
          <mxGeometry x="30" width="110" height="30" as="geometry" />
        </mxCell>
        <mxCell id="6iXqchDlvQ4-PBqipfJh-39" value="" style="shape=partialRectangle;overflow=hidden;connectable=0;fillColor=none;top=0;left=0;bottom=0;right=0;" vertex="1" parent="6iXqchDlvQ4-PBqipfJh-59">
          <mxGeometry y="120" width="30" height="30" as="geometry" />
        </mxCell>
        <mxCell id="6iXqchDlvQ4-PBqipfJh-40" value="" style="shape=partialRectangle;overflow=hidden;connectable=0;fillColor=none;top=0;left=0;bottom=0;right=0;align=left;spacingLeft=6;" vertex="1" parent="6iXqchDlvQ4-PBqipfJh-59">
          <mxGeometry x="30" y="120" width="90" height="30" as="geometry" />
        </mxCell>
        <mxCell id="6iXqchDlvQ4-PBqipfJh-41" value="FK3" style="shape=partialRectangle;overflow=hidden;connectable=0;fillColor=none;top=0;left=0;bottom=0;right=0;" vertex="1" parent="6iXqchDlvQ4-PBqipfJh-59">
          <mxGeometry y="120" width="30" height="30" as="geometry" />
        </mxCell>
        <mxCell id="6iXqchDlvQ4-PBqipfJh-42" value="teacher_id" style="shape=partialRectangle;overflow=hidden;connectable=0;fillColor=none;top=0;left=0;bottom=0;right=0;align=left;spacingLeft=6;" vertex="1" parent="6iXqchDlvQ4-PBqipfJh-59">
          <mxGeometry x="30" y="120" width="110" height="30" as="geometry" />
        </mxCell>
        <mxCell id="6iXqchDlvQ4-PBqipfJh-43" value="" style="shape=partialRectangle;overflow=hidden;connectable=0;fillColor=none;top=0;left=0;bottom=0;right=0;" vertex="1" parent="6iXqchDlvQ4-PBqipfJh-59">
          <mxGeometry y="150" width="30" height="30" as="geometry" />
        </mxCell>
        <mxCell id="6iXqchDlvQ4-PBqipfJh-44" value="title" style="shape=partialRectangle;overflow=hidden;connectable=0;fillColor=none;top=0;left=0;bottom=0;right=0;align=left;spacingLeft=6;" vertex="1" parent="6iXqchDlvQ4-PBqipfJh-59">
          <mxGeometry x="30" y="150" width="110" height="30" as="geometry" />
        </mxCell>
        <mxCell id="6iXqchDlvQ4-PBqipfJh-45" value="" style="shape=partialRectangle;overflow=hidden;connectable=0;fillColor=none;top=0;left=0;bottom=0;right=0;" vertex="1" parent="6iXqchDlvQ4-PBqipfJh-59">
          <mxGeometry y="180" width="30" height="30" as="geometry" />
        </mxCell>
        <mxCell id="6iXqchDlvQ4-PBqipfJh-46" value="file" style="shape=partialRectangle;overflow=hidden;connectable=0;fillColor=none;top=0;left=0;bottom=0;right=0;align=left;spacingLeft=6;" vertex="1" parent="6iXqchDlvQ4-PBqipfJh-59">
          <mxGeometry x="30" y="180" width="110" height="30" as="geometry" />
        </mxCell>
        <mxCell id="6iXqchDlvQ4-PBqipfJh-47" value="" style="shape=partialRectangle;overflow=hidden;connectable=0;fillColor=none;top=0;left=0;bottom=0;right=0;" vertex="1" parent="6iXqchDlvQ4-PBqipfJh-59">
          <mxGeometry y="210" width="30" height="30" as="geometry" />
        </mxCell>
        <mxCell id="6iXqchDlvQ4-PBqipfJh-48" value="body" style="shape=partialRectangle;overflow=hidden;connectable=0;fillColor=none;top=0;left=0;bottom=0;right=0;align=left;spacingLeft=6;" vertex="1" parent="6iXqchDlvQ4-PBqipfJh-59">
          <mxGeometry x="30" y="210" width="110" height="30" as="geometry" />
        </mxCell>
        <mxCell id="6iXqchDlvQ4-PBqipfJh-49" value="" style="shape=partialRectangle;overflow=hidden;connectable=0;fillColor=none;top=0;left=0;bottom=0;right=0;" vertex="1" parent="6iXqchDlvQ4-PBqipfJh-59">
          <mxGeometry y="240" width="30" height="30" as="geometry" />
        </mxCell>
        <mxCell id="6iXqchDlvQ4-PBqipfJh-50" value="mark" style="shape=partialRectangle;overflow=hidden;connectable=0;fillColor=none;top=0;left=0;bottom=0;right=0;align=left;spacingLeft=6;" vertex="1" parent="6iXqchDlvQ4-PBqipfJh-59">
          <mxGeometry x="30" y="240" width="110" height="30" as="geometry" />
        </mxCell>
        <mxCell id="6iXqchDlvQ4-PBqipfJh-51" value="" style="shape=partialRectangle;overflow=hidden;connectable=0;fillColor=none;top=0;left=0;bottom=0;right=0;" vertex="1" parent="6iXqchDlvQ4-PBqipfJh-59">
          <mxGeometry y="270" width="30" height="30" as="geometry" />
        </mxCell>
        <mxCell id="6iXqchDlvQ4-PBqipfJh-52" value="isActive" style="shape=partialRectangle;overflow=hidden;connectable=0;fillColor=none;top=0;left=0;bottom=0;right=0;align=left;spacingLeft=6;" vertex="1" parent="6iXqchDlvQ4-PBqipfJh-59">
          <mxGeometry x="30" y="270" width="110" height="30" as="geometry" />
        </mxCell>
        <mxCell id="6iXqchDlvQ4-PBqipfJh-53" value="" style="shape=partialRectangle;overflow=hidden;connectable=0;fillColor=none;top=0;left=0;bottom=0;right=0;" vertex="1" parent="6iXqchDlvQ4-PBqipfJh-59">
          <mxGeometry y="300" width="30" height="30" as="geometry" />
        </mxCell>
        <mxCell id="6iXqchDlvQ4-PBqipfJh-54" value="isDelete" style="shape=partialRectangle;overflow=hidden;connectable=0;fillColor=none;top=0;left=0;bottom=0;right=0;align=left;spacingLeft=6;" vertex="1" parent="6iXqchDlvQ4-PBqipfJh-59">
          <mxGeometry x="30" y="300" width="110" height="30" as="geometry" />
        </mxCell>
        <mxCell id="6iXqchDlvQ4-PBqipfJh-55" value="" style="shape=partialRectangle;overflow=hidden;connectable=0;fillColor=none;top=0;left=0;bottom=0;right=0;" vertex="1" parent="6iXqchDlvQ4-PBqipfJh-59">
          <mxGeometry y="330" width="30" height="30" as="geometry" />
        </mxCell>
        <mxCell id="6iXqchDlvQ4-PBqipfJh-56" value="created_at" style="shape=partialRectangle;overflow=hidden;connectable=0;fillColor=none;top=0;left=0;bottom=0;right=0;align=left;spacingLeft=6;" vertex="1" parent="6iXqchDlvQ4-PBqipfJh-59">
          <mxGeometry x="30" y="330" width="110" height="30" as="geometry" />
        </mxCell>
        <mxCell id="6iXqchDlvQ4-PBqipfJh-57" value="" style="shape=partialRectangle;overflow=hidden;connectable=0;fillColor=none;top=0;left=0;bottom=0;right=0;" vertex="1" parent="6iXqchDlvQ4-PBqipfJh-59">
          <mxGeometry y="360" width="30" height="30" as="geometry" />
        </mxCell>
        <mxCell id="6iXqchDlvQ4-PBqipfJh-58" value="updated_at" style="shape=partialRectangle;overflow=hidden;connectable=0;fillColor=none;top=0;left=0;bottom=0;right=0;align=left;spacingLeft=6;" vertex="1" parent="6iXqchDlvQ4-PBqipfJh-59">
          <mxGeometry x="30" y="360" width="110" height="30" as="geometry" />
        </mxCell>
        <mxCell id="6iXqchDlvQ4-PBqipfJh-61" style="rounded=0;orthogonalLoop=1;jettySize=auto;html=1;entryX=0;entryY=0.072;entryDx=0;entryDy=0;entryPerimeter=0;edgeStyle=elbowEdgeStyle;startArrow=ERone;startFill=0;endArrow=ERmany;endFill=0;" edge="1" parent="1" target="C-vyLk0tnHw3VtMMgP7b-2">
          <mxGeometry relative="1" as="geometry">
            <mxPoint x="582" y="459" as="sourcePoint" />
          </mxGeometry>
        </mxCell>
      </root>
    </mxGraphModel>
  </diagram>
</mxfile>
